<svg xmlns="http://www.w3.org/2000/svg" width="15" height="15" viewBox="0 0 15 15" fill="none">
<path d="M10.8281 9.48437L10.6875 9.6875L10.5469 9.875L10.3906 10.0469L10.2188 10.2187L10.0469 10.3906L9.875 10.5469L9.6875 10.6875L9.48438 10.8281L9.6875 10.9687L9.875 11.1094L10.0469 11.2656L10.2188 11.4219L10.3906 11.5937L10.5469 11.7812L10.6875 11.9687L10.8281 12.1719L10.9688 11.9687L11.1094 11.7812L11.2656 11.5937L11.4219 11.4219L11.6094 11.2656L11.7813 11.1094L11.9688 10.9687L12.1719 10.8281L11.9688 10.6875L11.7813 10.5469L11.6094 10.3906L11.4219 10.2187L11.2656 10.0469L11.1094 9.875L10.9688 9.6875L10.8281 9.48437ZM10.8281 7.21875H10.9375L11.0313 7.25L11.125 7.28125L11.2188 7.34375L11.2813 7.40625L11.3594 7.48437L11.4063 7.57812L11.4531 7.67187L11.625 8.1875L11.7031 8.35937L11.7969 8.53125L11.8906 8.70312L11.9844 8.85937L12.1094 9.01562L12.2344 9.15625L12.3594 9.29687L12.5 9.42187L12.6406 9.54687L12.7969 9.67187L12.9531 9.76562L13.125 9.85937L13.2969 9.95312L13.4688 10.0312L13.9844 10.2031L14.0781 10.25L14.1719 10.2969L14.25 10.3594L14.3125 10.4375L14.3594 10.5312L14.4063 10.625L14.4375 10.7187V10.8281V10.9375L14.4063 11.0312L14.3594 11.125L14.3125 11.2187L14.25 11.2969L14.1719 11.3594L14.0781 11.4062L13.9844 11.4531L13.4688 11.625L13.2969 11.7031L13.125 11.7969L12.9531 11.8906L12.7969 11.9844L12.6406 12.1094L12.5 12.2344L12.3594 12.3594L12.2344 12.5L12.1094 12.6406L11.9844 12.7969L11.8906 12.9531L11.7969 13.125L11.7031 13.2969L11.625 13.4687L11.4531 13.9844L11.4063 14.0781L11.3594 14.1719L11.2813 14.25L11.2188 14.3125L11.125 14.3594L11.0313 14.4062L10.9375 14.4375H10.8281H10.7188L10.625 14.4062L10.5313 14.375L10.4375 14.3125L10.3594 14.25L10.2969 14.1719L10.25 14.0781L10.2031 13.9844L10.0313 13.4687L9.95313 13.2969L9.85938 13.125L9.76563 12.9531L9.65625 12.7969L9.54688 12.6406L9.42188 12.5L9.29688 12.3594L9.15625 12.2344L9.01563 12.1094L8.85938 11.9844L8.70313 11.8906L8.53125 11.7969L8.35938 11.7031L8.1875 11.625L7.67188 11.4531L7.57813 11.4062L7.48438 11.3594L7.40625 11.2969L7.34375 11.2187L7.28125 11.125L7.25 11.0312L7.21875 10.9375V10.8281V10.7187L7.25 10.625L7.28125 10.5312L7.34375 10.4375L7.40625 10.3594L7.48438 10.2969L7.57813 10.25L7.67188 10.2031L8.1875 10.0312L8.35938 9.95312L8.53125 9.85937L8.70313 9.76562L8.85938 9.67187L9.01563 9.54687L9.15625 9.42187L9.29688 9.29687L9.42188 9.15625L9.54688 9.01562L9.65625 8.85937L9.76563 8.70312L9.85938 8.53125L9.95313 8.35937L10.0313 8.1875L10.2031 7.67187L10.25 7.57812L10.2969 7.48437L10.3594 7.40625L10.4375 7.34375L10.5313 7.29687L10.625 7.25L10.7188 7.21875H10.8281ZM4.59375 4.40625L4.5 4.57812L4.40625 4.75L4.20313 5.07812L3.95313 5.375L3.70313 5.67187L3.40625 5.92187L3.10938 6.17187L2.78125 6.375L2.4375 6.5625L2.78125 6.75L3.10938 6.95312L3.42188 7.1875L3.70313 7.45312L3.96875 7.73438L4.20313 8.04688L4.40625 8.375L4.59375 8.71875L4.78125 8.375L4.98438 8.04688L5.21875 7.73438L5.48438 7.45312L5.76563 7.1875L6.07813 6.95312L6.40625 6.75L6.75 6.5625L6.40625 6.375L6.07813 6.17187L5.76563 5.92187L5.48438 5.67187L5.21875 5.375L4.98438 5.07812L4.78125 4.75L4.59375 4.40625ZM11.4844 2.15625L11.3125 2.375L11.125 2.59375L10.9062 2.78125L10.6875 2.95312L10.9062 3.125L11.125 3.3125L11.3125 3.51562L11.4844 3.73437L11.6562 3.51562L11.8438 3.3125L12.0469 3.125L12.2656 2.95312L12.0469 2.78125L11.8438 2.59375L11.6562 2.375L11.4844 2.15625ZM4.59375 1.96875L4.6875 1.96875L4.78125 2L4.875 2.03125L4.96875 2.07812L5.04688 2.14062L5.10938 2.21875L5.15625 2.29687L5.20312 2.39062L5.73438 3.76562L5.89063 4.0625L6.07813 4.35937L6.29688 4.60937L6.53125 4.85937L6.79688 5.0625L7.09375 5.25L7.39062 5.40625L8.76562 5.95312L8.85938 5.98437L8.9375 6.04687L9.01562 6.10937L9.07812 6.1875L9.125 6.28125L9.15625 6.35937L9.17188 6.45312L9.1875 6.5625L9.17188 6.65625L9.15625 6.75L9.125 6.84375L9.07813 6.9375L9.01563 7.01562L8.9375 7.07812L8.85938 7.125L8.76563 7.17187L7.39063 7.70312L7.09375 7.85937L6.79688 8.04687L6.53125 8.26562L6.29688 8.5L6.07813 8.76562L5.89063 9.0625L5.73438 9.35938L5.20313 10.7344L5.15625 10.8281L5.10938 10.9062L5.04688 10.9844L4.96875 11.0469L4.875 11.0938L4.79688 11.125L4.6875 11.1406L4.59375 11.1562L4.5 11.1406L4.39063 11.125L4.3125 11.0938L4.21875 11.0469L4.14063 10.9844L4.07813 10.9062L4.03125 10.8281L3.98438 10.7344L3.4375 9.35938L3.28125 9.0625L3.10938 8.76562L2.89063 8.5L2.64063 8.26562L2.39063 8.04688L2.09375 7.85938L1.79688 7.70312L0.421875 7.17188L0.328125 7.125L0.25 7.07812L0.171875 7.01562L0.109375 6.9375L0.0625 6.84375L0.03125 6.75L0 6.65625V6.5625V6.45312L0.03125 6.35938L0.0625 6.28125L0.109375 6.1875L0.171875 6.10938L0.25 6.04688L0.328125 5.98438L0.421875 5.95312L1.79688 5.40625L2.09375 5.25L2.39063 5.07812L2.64063 4.85938L2.89063 4.60937L3.10938 4.35937L3.28125 4.0625L3.4375 3.76562L3.98438 2.39062L4.03125 2.29687L4.07812 2.21875L4.14062 2.14062L4.21875 2.07812L4.3125 2.03125L4.39062 2L4.5 1.96875H4.59375ZM11.4844 0H11.5938L11.6875 0.03125L11.7812 0.0625L11.875 0.125L11.9375 0.1875L12.0156 0.265625L12.0625 0.359375L12.1094 0.453125L12.2344 0.84375L12.3594 1.09375L12.5156 1.34375L12.6875 1.5625L12.875 1.75L13.0938 1.92187L13.3281 2.07812L13.5938 2.1875L13.9844 2.32812L14.0781 2.375L14.1719 2.42187L14.25 2.48437L14.3125 2.5625L14.3594 2.65625L14.4062 2.75L14.4375 2.84375V2.95312V3.0625L14.4062 3.15625L14.3594 3.25L14.3125 3.34375L14.25 3.42187L14.1719 3.48437L14.0781 3.53125L13.9844 3.57812L13.5938 3.71875L13.3281 3.82812L13.0938 3.98437L12.875 4.15625L12.6875 4.34375L12.5156 4.5625L12.3594 4.8125L12.2344 5.0625L12.1094 5.45312L12.0625 5.54687L12.0156 5.64062L11.9375 5.71875L11.875 5.78125L11.7812 5.82812L11.6875 5.875L11.5938 5.90625H11.4844H11.375L11.2812 5.875L11.1875 5.84375L11.0938 5.78125L11.0156 5.71875L10.9531 5.64062L10.9062 5.54687L10.8594 5.45312L10.7188 5.0625L10.6094 4.8125L10.4531 4.5625L10.2812 4.34375L10.0938 4.15625L9.875 3.98437L9.625 3.82812L9.375 3.71875L8.98438 3.57812L8.89062 3.53125L8.79688 3.48437L8.71875 3.42187L8.65625 3.34375L8.59375 3.25L8.5625 3.15625L8.53125 3.0625V2.95312V2.84375L8.5625 2.75L8.59375 2.65625L8.65625 2.5625L8.71875 2.48437L8.79688 2.42187L8.89062 2.375L8.98438 2.32812L9.375 2.1875L9.625 2.07812L9.875 1.92187L10.0938 1.75L10.2812 1.5625L10.4531 1.34375L10.6094 1.09375L10.7188 0.84375L10.8594 0.453125L10.9062 0.359375L10.9531 0.265625L11.0156 0.1875L11.0938 0.125L11.1875 0.078125L11.2812 0.03125L11.375 0L11.4844 0Z" fill="#85888E"/>
<script xmlns=""/><link xmlns=""/></svg>