<svg width="124" height="44" viewBox="0 0 124 44" fill="none" xmlns="http://www.w3.org/2000/svg">
<path fill-rule="evenodd" clip-rule="evenodd" d="M7.17665 1H14.3533C16.3347 1 17.9425 2.60782 17.9425 4.58919V8.18009C17.9425 10.1615 16.3347 11.7693 14.3533 11.7693H0V8.18009C0 4.21219 3.21219 1 7.17665 1Z" fill="white"/>
<path fill-rule="evenodd" clip-rule="evenodd" d="M0 15.3574H14.3533C16.3347 15.3574 17.9425 16.9652 17.9425 18.9466V26.1267C17.9425 28.1081 16.3347 29.7159 14.3533 29.7159H7.17665C3.21564 29.7159 0 26.5003 0 22.5375V15.3574Z" fill="white"/>
<path fill-rule="evenodd" clip-rule="evenodd" d="M25.1195 15.3574H28.7069V22.5375C28.7069 26.5003 25.4913 29.7159 21.5303 29.7159V18.9466C21.5303 16.9618 23.1346 15.3574 25.1195 15.3574Z" fill="white"/>
<path fill-rule="evenodd" clip-rule="evenodd" d="M21.5303 1C25.4913 1 28.7069 4.21736 28.7069 8.18009V11.7693H25.1195C23.1381 11.7693 21.5303 10.1615 21.5303 8.18009V1Z" fill="white"/>
<path d="M37.5488 24.1988V6.21094H44.5021C47.8276 6.21094 49.9438 8.176 49.9438 11.048C49.9438 12.7863 49.0369 14.1467 47.752 14.6758C49.5659 15.1293 50.8508 16.7164 50.8508 18.9082C50.8508 21.9314 48.5834 24.1988 45.3335 24.1988H37.5488V24.1988ZM44.1998 9.612H41.7057V13.3154H44.1998C45.2579 13.3154 46.0137 12.6352 46.0137 11.4259C46.0137 10.2166 45.1823 9.612 44.1998 9.612ZM44.7288 16.6409H41.7057V20.7977H44.7288C45.8625 20.7977 46.6183 19.9663 46.6183 18.7571C46.6183 17.4722 45.787 16.6409 44.7288 16.6409Z" fill="white"/>
<path d="M59.6132 10.5938C63.8456 10.5938 67.0955 13.6169 67.0955 17.547C67.0955 21.4771 63.9212 24.5003 59.6132 24.5003C55.3808 24.5003 52.1309 21.4771 52.1309 17.547C52.2064 13.6169 55.3808 10.5938 59.6132 10.5938ZM59.6132 20.8725C61.5027 20.8725 62.9387 19.4365 62.9387 17.547C62.9387 15.6576 61.5027 14.2215 59.6132 14.2215C57.7237 14.2215 56.2877 15.6576 56.2877 17.547C56.2877 19.4365 57.7237 20.8725 59.6132 20.8725Z" fill="white"/>
<path d="M73.6715 6.21094H69.5146V24.1988H73.6715V6.21094Z" fill="white"/>
<path d="M82.2867 10.5945C84.0251 10.5945 85.4611 11.2747 86.5192 12.3328V6.21094H90.6004V24.1988H86.5192V22.7628C85.4611 23.8965 84.0251 24.5011 82.2867 24.5011C78.6589 24.5011 76.0137 21.4779 76.0137 17.5478C76.0137 13.6177 78.6589 10.5945 82.2867 10.5945ZM83.3449 20.8733C85.1588 20.8733 86.5192 19.4373 86.5192 17.5478C86.5192 15.6583 85.0832 14.2223 83.3449 14.2223C81.531 14.2223 80.1705 15.6583 80.1705 17.5478C80.1705 19.4373 81.531 20.8733 83.3449 20.8733Z" fill="white"/>
<path fill-rule="evenodd" clip-rule="evenodd" d="M96.1182 24.198V6.21094H103.081C106.435 6.21094 108.517 8.16136 108.517 11.0806C108.517 12.8153 107.62 14.1516 106.296 14.7182C108.08 15.2063 109.431 16.7747 109.431 18.9445C109.431 22.0026 107.197 24.198 103.909 24.198H96.1182ZM102.759 9.63184H100.242V13.3554H102.759C103.814 13.3554 104.558 12.69 104.558 11.4909C104.558 10.2972 103.814 9.63184 102.759 9.63184ZM103.286 16.6435H100.242V20.782H103.286C104.419 20.782 105.21 19.9594 105.21 18.7127C105.21 17.4551 104.419 16.6435 103.286 16.6435Z" fill="white"/>
<path fill-rule="evenodd" clip-rule="evenodd" d="M116.595 6.21094V24.198H112.345V6.21094H116.595Z" fill="white"/>
<path d="M123.139 6.13613C123.139 7.59431 121.998 8.7487 120.556 8.7487C119.114 8.7487 117.973 7.59431 117.973 6.13613C117.973 4.67796 119.114 3.58432 120.556 3.58432C121.938 3.52357 123.139 4.67796 123.139 6.13613ZM118.934 4.67796C118.573 5.0425 118.393 5.58932 118.393 6.13613C118.393 7.35128 119.354 8.3234 120.556 8.3234C121.758 8.3234 122.719 7.35128 122.719 6.13613C122.719 4.98174 121.758 3.94887 120.616 3.94887C119.895 3.94887 119.354 4.1919 118.934 4.67796ZM121.577 7.65507H121.037L120.256 6.50068V7.65507H119.835V4.6172H120.316C120.977 4.6172 121.277 4.92099 121.277 5.4678C121.277 5.8931 121.037 6.19689 120.616 6.3184L121.577 7.65507ZM120.436 5.8931C120.736 5.8931 120.916 5.71083 120.916 5.4678C120.916 5.16402 120.736 5.0425 120.376 5.0425H120.256V5.8931H120.436V5.8931Z" fill="white"/>
<path d="M41.0307 39.7414C40.1417 39.7414 39.4009 39.371 38.8823 38.7783V39.5932H37.5488V30.8516H38.8823V34.2593C39.4009 33.6667 40.1417 33.2963 41.0307 33.2963C42.8087 33.2963 44.0681 34.7038 44.0681 36.5559C44.0681 38.2598 42.8087 39.7414 41.0307 39.7414ZM40.8084 34.4816C39.6972 34.4816 38.8823 35.3706 38.8823 36.4818C38.8823 37.593 39.6972 38.482 40.8084 38.482C41.9197 38.482 42.7346 37.593 42.7346 36.4818C42.6605 35.3706 41.9197 34.4816 40.8084 34.4816Z" fill="white"/>
<path d="M45.7721 42.3331L46.8833 39.518L44.5127 33.3691H45.9203L47.5501 37.8141L49.1799 33.3691H50.5874L47.1797 42.3331H45.7721V42.3331Z" fill="white"/>
<path d="M55.6999 37.4433C56.2926 38.1101 57.0334 38.5546 57.8483 38.5546C58.8114 38.5546 59.4781 38.1101 59.4781 37.3692C59.4781 36.7025 59.0336 36.1839 57.6261 35.8876C55.9222 35.5172 55.0332 34.7023 55.0332 33.4429C55.0332 32.0353 56.1444 31.0723 57.7742 31.0723C59.2559 31.0723 60.5894 31.8872 60.7375 33.517H59.33C59.2559 32.7021 58.6632 32.2576 57.8483 32.2576C57.0334 32.2576 56.5148 32.7021 56.5148 33.2947C56.5148 33.9615 57.0334 34.406 58.2928 34.7023C60.1449 35.1468 60.9598 35.9617 60.9598 37.2952C60.9598 38.7027 59.8485 39.7399 57.9224 39.7399C56.8112 39.7399 55.774 39.1472 55.0332 38.1841L55.6999 37.4433Z" fill="white"/>
<path d="M62.6627 42.3331L63.7739 39.518L61.4033 33.3691H62.8109L64.4407 37.8141L66.0705 33.3691H67.4781L64.0703 42.3331H62.6627V42.3331Z" fill="white"/>
<path d="M74.1457 35.7414V39.5196H72.8123V35.8155C72.8123 35.0006 72.2196 34.408 71.4047 34.408C70.5898 34.408 69.7749 35.1488 69.7749 36.1119V39.5196H68.4414V33.3708H69.7749V34.1857C70.2194 33.5931 70.8861 33.2227 71.6269 33.2227C73.1827 33.2227 74.1457 34.2598 74.1457 35.7414Z" fill="white"/>
<path d="M81.4058 38.038C80.8131 39.1492 79.8501 39.7419 78.6647 39.7419C76.8127 39.7419 75.3311 38.3343 75.3311 36.4823C75.3311 34.6302 76.7386 33.2227 78.5166 33.2227C80.0723 33.2227 81.1835 34.0376 81.5539 35.4451H80.0723C79.8501 34.8525 79.3315 34.408 78.5907 34.408C77.6276 34.408 76.7386 35.2229 76.7386 36.4082C76.7386 37.6676 77.7017 38.4084 78.7388 38.4084C79.4797 38.4084 80.1464 38.038 80.665 37.3713L81.4058 38.038Z" fill="white"/>
<path d="M86.1478 32.0369C85.9996 32.0369 85.7773 32.0369 85.6292 32.0369C84.8143 32.0369 84.5179 32.4073 84.5179 33.074V33.4444H86.1478V34.5557H84.5179V39.5192H83.1845V34.5557H82.0732V33.3704H83.1845V32.9999C83.1845 31.5183 83.9253 30.8516 85.481 30.8516C85.7033 30.8516 85.9996 30.8516 86.1478 30.9256V32.0369Z" fill="white"/>
<path d="M87.1104 37.2215V33.4434H88.4438V37.1475C88.4438 37.9624 89.0365 38.555 89.8514 38.555C90.7404 38.555 91.4812 37.8142 91.4812 36.7771V33.4434H92.8147V39.5922H91.4812V38.7773C91.0367 39.3699 90.37 39.7403 89.6291 39.7403C88.0734 39.6663 87.1104 38.7032 87.1104 37.2215Z" fill="white"/>
<path d="M94.7401 37.8159C95.1846 38.2604 95.7032 38.6308 96.3699 38.6308C97.0367 38.6308 97.4812 38.3345 97.4812 37.89C97.4812 37.4455 97.1108 37.1491 96.2958 37.001C94.9624 36.7047 94.2956 36.0379 94.2956 35.0748C94.2956 34.0377 95.1105 33.2969 96.444 33.2969C97.7034 33.2969 98.5924 33.9636 98.7405 35.1489H97.4071C97.333 34.7044 97.0367 34.4081 96.5181 34.4081C95.9995 34.4081 95.6291 34.7044 95.6291 35.0748C95.6291 35.4453 95.9995 35.8157 96.7403 35.9638C98.1479 36.2602 98.8146 36.8528 98.8146 37.89C98.8146 38.9271 97.9257 39.742 96.444 39.742C95.4809 39.742 94.7401 39.2975 94.1475 38.5567L94.7401 37.8159Z" fill="white"/>
<path d="M100.815 30.8516C101.259 30.8516 101.63 31.222 101.63 31.6665C101.63 32.111 101.259 32.4814 100.815 32.4814C100.37 32.4814 100 32.111 100 31.6665C100 31.222 100.37 30.8516 100.815 30.8516ZM100.148 33.3704H101.482V39.5192H100.148V33.3704Z" fill="white"/>
<path d="M106.223 33.2227C108.149 33.2227 109.631 34.6302 109.631 36.4823C109.631 38.3343 108.223 39.7419 106.223 39.7419C104.297 39.7419 102.815 38.3343 102.815 36.4823C102.815 34.6302 104.297 33.2227 106.223 33.2227ZM106.223 38.4825C107.334 38.4825 108.223 37.5935 108.223 36.4823C108.223 35.371 107.334 34.4821 106.223 34.4821C105.112 34.4821 104.223 35.371 104.223 36.4823C104.223 37.5935 105.112 38.4825 106.223 38.4825Z" fill="white"/>
<path d="M116.595 35.7414V39.5196H115.261V35.8155C115.261 35.0006 114.669 34.408 113.854 34.408C113.039 34.408 112.224 35.1488 112.224 36.1119V39.5196H110.891V33.3708H112.224V34.1857C112.669 33.5931 113.335 33.2227 114.076 33.2227C115.632 33.2227 116.595 34.2598 116.595 35.7414Z" fill="white"/>
<path d="M119.695 32.4157C119.695 33.1448 119.124 33.722 118.403 33.722C117.682 33.722 117.111 33.1448 117.111 32.4157C117.111 31.6866 117.682 31.1398 118.403 31.1398C119.094 31.1094 119.695 31.6866 119.695 32.4157ZM117.592 31.6866C117.412 31.8689 117.322 32.1423 117.322 32.4157C117.322 33.0233 117.802 33.5094 118.403 33.5094C119.004 33.5094 119.484 33.0233 119.484 32.4157C119.484 31.8385 119.004 31.3221 118.433 31.3221C118.073 31.3221 117.802 31.4436 117.592 31.6866ZM118.914 33.1752H118.643L118.253 32.598V33.1752H118.043V31.6563H118.283C118.613 31.6563 118.763 31.8081 118.763 32.0816C118.763 32.2942 118.643 32.4461 118.433 32.5069L118.914 33.1752ZM118.343 32.2942C118.493 32.2942 118.583 32.2031 118.583 32.0816C118.583 31.9297 118.493 31.8689 118.313 31.8689H118.253V32.2942H118.343Z" fill="white"/>
</svg>
