<svg width="12" height="14" viewBox="0 0 12 14" fill="none" xmlns="http://www.w3.org/2000/svg">
<path d="M4.92188 3.9375H4.82813L4.71875 3.95312L4.625 3.98437L4.53125 4.01562L4.375 4.10937L4.21875 4.21875L4.10938 4.375L4.01563 4.53125L3.98438 4.625L3.95313 4.71875L3.9375 4.82812V4.92187L3.9375 10.8281V10.9219L3.95313 11.0312L3.98438 11.125L4.01563 11.2188L4.10938 11.375L4.21875 11.5312L4.375 11.6406L4.53125 11.7344L4.625 11.7656L4.71875 11.7969L4.82813 11.8125H4.92188L9.51563 11.8125H9.60938L9.71875 11.7969L9.8125 11.7656L9.90625 11.7344L10.0625 11.6406L10.2188 11.5312L10.3281 11.375L10.4219 11.2187L10.4531 11.125L10.4844 11.0312L10.5 10.9219V10.8281L10.5 4.92187V4.82812L10.4844 4.71875L10.4531 4.625L10.4219 4.53125L10.3281 4.375L10.2188 4.21875L10.0625 4.10937L9.90625 4.01562L9.8125 3.98437L9.71875 3.95312L9.60938 3.9375H9.51562L4.92188 3.9375ZM2.29688 1.3125H2.20312L2.09375 1.32812L2 1.35937L1.90625 1.39062L1.75 1.48437L1.59375 1.59375L1.48438 1.75L1.39063 1.90625L1.35938 2L1.32813 2.09375L1.3125 2.20312V2.29687L1.3125 8.20312V8.29688L1.32813 8.40625L1.35938 8.5L1.39063 8.59375L1.48438 8.75L1.59375 8.90625L1.75 9.01562L1.90625 9.10938L2 9.14062L2.09375 9.17188L2.20313 9.1875H2.625V4.92187L2.64063 4.6875L2.67188 4.45312L2.73438 4.23437L2.8125 4.03125L2.90625 3.82812L3.01563 3.64062L3.15625 3.45312L3.29688 3.29687L3.45313 3.15625L3.64063 3.01562L3.82813 2.90625L4.03125 2.8125L4.23438 2.73437L4.45313 2.67187L4.6875 2.64062L4.79688 2.625H7.875V2.20312L7.85938 2.09375L7.82812 2L7.79688 1.90625L7.70312 1.75L7.59375 1.59375L7.4375 1.48437L7.28125 1.39062L7.1875 1.35937L7.09375 1.32812L6.98438 1.3125L6.89062 1.3125L2.29688 1.3125ZM2.29688 0L6.89062 0L7.125 0.015625L7.35938 0.046875L7.57812 0.109375L7.78125 0.1875L7.98438 0.28125L8.17188 0.390625L8.35938 0.53125L8.51562 0.671875L8.65625 0.828125L8.79688 1.01562L8.90625 1.20312L9 1.40625L9.07812 1.60937L9.14062 1.82812L9.17188 2.0625L9.1875 2.17187V2.625H9.51562L9.75 2.64062L9.98438 2.67187L10.2031 2.73437L10.4062 2.8125L10.6094 2.90625L10.7969 3.01562L10.9844 3.15625L11.1406 3.29687L11.2812 3.45312L11.4219 3.64062L11.5312 3.82812L11.625 4.03125L11.7031 4.23437L11.7656 4.45312L11.7969 4.6875L11.8125 4.79687L11.8125 10.8281L11.7969 11.0625L11.7656 11.2969L11.7031 11.5156L11.625 11.7187L11.5313 11.9219L11.4219 12.1094L11.2813 12.2969L11.1406 12.4531L10.9844 12.5937L10.7969 12.7344L10.6094 12.8437L10.4063 12.9375L10.2031 13.0156L9.98438 13.0781L9.75 13.1094L9.64063 13.125L4.92188 13.125L4.6875 13.1094L4.45313 13.0781L4.23438 13.0156L4.03125 12.9375L3.82813 12.8438L3.64063 12.7344L3.45313 12.5938L3.29688 12.4531L3.15625 12.2969L3.01563 12.1094L2.90625 11.9219L2.8125 11.7188L2.73438 11.5156L2.67188 11.2969L2.64063 11.0625L2.625 10.9531V10.5H2.29688L2.0625 10.4844L1.82813 10.4531L1.60938 10.3906L1.40625 10.3125L1.20313 10.2188L1.01563 10.1094L0.828125 9.96875L0.671875 9.82812L0.53125 9.67188L0.390625 9.48438L0.28125 9.29688L0.1875 9.09375L0.109375 8.89062L0.046875 8.67188L0.015625 8.4375L0 8.32812L0 2.29687L0.015625 2.0625L0.046875 1.82812L0.109375 1.60937L0.1875 1.40625L0.28125 1.20312L0.390625 1.01562L0.53125 0.828125L0.671875 0.671875L0.828125 0.53125L1.01563 0.390625L1.20312 0.28125L1.40625 0.1875L1.60938 0.109375L1.82812 0.046875L2.0625 0.015625L2.29688 0Z" fill="#667085"/>
</svg>
