<svg xmlns="http://www.w3.org/2000/svg" width="56" height="56" viewBox="0 0 56 56" fill="none">

  <!-- Background circle -->
  <rect x="0.75" y="0.75" width="54.5" height="54.5" rx="27.25" fill="blue" stroke="white" stroke-width="3"/>

  <!-- Icon group: centered + padded -->
  <g transform="translate(28 28) scale(0.52) translate(-28 -28)" stroke="white" fill="" stroke-width="3" stroke-linecap="round" stroke-linejoin="round">

    <path d="M49.003 34.8128L52.2203 34.8845C52.676 34.8946 53.067 35.2128 53.173 35.6561C53.4552 36.8358 53.5126 37.0118 53.7967 38.2002C53.901 38.6365 53.7001 39.089 53.3072 39.3054L50.8397 40.6649C50.6028 40.7955 50.4277 41.0164 50.3615 41.2787C50.141 42.1524 50.0413 42.778 49.828 43.6369C49.7514 43.9454 49.8168 44.2735 50.0141 44.5228L51.6817 46.63C51.9655 46.9885 51.9695 47.4949 51.6916 47.858C50.933 48.8491 50.7839 49.0261 49.8889 50.078C49.6121 50.4032 49.1586 50.5181 48.761 50.3624L45.9698 49.2689C45.7202 49.1711 45.4414 49.1778 45.1964 49.2866C44.3468 49.6642 43.7389 49.9338 42.8993 50.4202C42.6773 50.5488 42.5173 50.7621 42.4497 51.0097L41.7112 53.7132C41.5928 54.1466 41.1997 54.4482 40.7504 54.4478C39.4466 54.4465 39.2582 54.4307 38.0017 54.5211C37.5303 54.555 37.0968 54.2577 36.9636 53.8043L36.194 51.1847C36.1115 50.9037 35.9098 50.6731 35.6425 50.5535C34.8489 50.1982 34.2934 49.9454 33.3645 49.498C33.1019 49.3715 32.7969 49.3645 32.5295 49.4803L29.878 50.6285C29.4844 50.7989 29.0247 50.6994 28.7397 50.3788C27.882 49.4138 27.7582 49.213 27.0296 48.2689C26.7511 47.908 26.7462 47.4039 27.0229 47.0415L28.652 44.9071C28.8479 44.6505 28.9062 44.3153 28.8187 44.0045C28.6011 43.231 28.4789 42.6291 28.2362 41.7395C28.162 41.4676 27.9724 41.242 27.7195 41.1176L25.331 39.9425C24.9045 39.7326 24.6864 39.2506 24.8005 38.7892C25.0941 37.6014 25.1036 37.349 25.4141 36.1055C25.5169 35.6936 25.8734 35.3952 26.2965 35.3606L28.4799 35.1821"/>

    <path d="M33 38V41C33 41.5523 33.4477 42 34 42H45C45.5523 42 46 41.5523 46 41V38"/>
    <path d="M42.2168 35.201L39.0579 38.1589L36.1001 35"/>
    <path d="M39.75 30V37"/>
    <path d="M20 47H12C8.22876 47 6.34315 47 5.17157 45.8284C4 44.6569 4 42.7712 4 39V12C4 8.22876 4 6.34315 5.17157 5.17157C6.34315 4 8.22876 4 12 4H32C35.7712 4 37.6569 4 38.8284 5.17157C40 6.34315 40 8.22876 40 12V24"/>
    <path d="M9.99609 16.75H26.0039"/>
    <path d="M10 24.5H28.5"/>
    <path d="M10 32.5H19.5"/>

  </g>
</svg>