<svg xmlns="http://www.w3.org/2000/svg"
     width="56"
     height="56"
     viewBox="0 0 56 56"
     fill="none">

  <!-- Circular background -->
  <circle
    cx="28"
    cy="28"
    r="28"
    fill="darkgreen"
  />

  <!-- Icon group (centered & padded) -->
  <g
    transform="translate(28 28) scale(0.52) translate(-28 -28)"
    stroke="white"
    fill=""
    stroke-width="2"
    stroke-linecap="round"
    stroke-linejoin="round"
  >

    <path d="M14 6.75H42C43.9068 6.75 45.2615 6.75159 46.2892 6.88976C47.2952 7.02502 47.8749 7.27869 48.2981 7.7019C48.7213 8.12511 48.975 8.70476 49.1102 9.71085C49.2484 10.7385 49.25 12.0932 49.25 14V35.1628V42C49.25 43.9068 49.2484 45.2615 49.1102 46.2892C48.975 47.2952 48.7213 47.8749 48.2981 48.2981C47.8749 48.7213 47.2952 48.975 46.2892 49.1102C45.2615 49.2484 43.9068 49.25 42 49.25H32.8889H14C12.0932 49.25 10.7385 49.2484 9.71085 49.1102C8.70476 48.975 8.12511 48.7213 7.7019 48.2981C7.27869 47.8749 7.02502 47.2952 6.88976 46.2892C6.75159 45.2615 6.75 43.9068 6.75 42V14C6.75 12.0932 6.75159 10.7385 6.88976 9.71085C7.02502 8.70476 7.27869 8.12511 7.7019 7.7019C8.12511 7.27869 8.70476 7.02502 9.71085 6.88976C10.7385 6.75159 12.0932 6.75 14 6.75Z"/>

    <path d="M7 18L49 18"/>
    <circle cx="13" cy="12" r="2"/>
    <circle cx="21" cy="12" r="2"/>
    <circle cx="29" cy="12" r="2"/>

    <rect x="20.5879" y="26.5215" width="15.4307" height="13.5857" rx="1.25"/>
    <path d="M25.4238 23V27"/>
    <path d="M32.6816 23V27"/>

    <path d="M15 30.8H20.442"/>
    <path d="M35.5586 30.8H41.0006"/>

    <path d="M15 35.8286H20.442"/>
    <path d="M35.5586 35.8286H41.0006"/>

    <path d="M25.4238 44V39.6"/>
    <path d="M32.6816 44V39.6"/>

  </g>
</svg>