<svg width="40" height="40" viewBox="0 0 40 40" fill="none" xmlns="http://www.w3.org/2000/svg">
<circle cx="20" cy="20" r="20" fill="#DB2777"/>
<path d="M20.83 13.8C20.83 14.3439 20.6687 14.8756 20.3665 15.3278C20.0644 15.7801 19.6349 16.1325 19.1324 16.3407C18.6299 16.5488 18.077 16.6033 17.5435 16.4972C17.0101 16.3911 16.5201 16.1291 16.1355 15.7445C15.7509 15.3599 15.489 14.8699 15.3828 14.3365C15.2767 13.8031 15.3312 13.2501 15.5393 12.7476C15.7475 12.2451 16.0999 11.8156 16.5522 11.5135C17.0044 11.2113 17.5361 11.05 18.08 11.05C18.8093 11.05 19.5088 11.3397 20.0245 11.8555C20.5403 12.3712 20.83 13.0707 20.83 13.8V13.8Z" stroke="white" stroke-miterlimit="10"/>
<path d="M22.05 18.8C21.9538 18.7656 21.8522 18.7487 21.75 18.75H14.75C14.4719 18.7642 14.2107 18.8879 14.0233 19.0939C13.836 19.3 13.7378 19.5718 13.75 19.85V22.6C13.7411 23.8899 14.2115 25.1372 15.07 26.1C15.4684 26.5516 15.9575 26.9141 16.5054 27.1639C17.0534 27.4138 17.6478 27.5453 18.25 27.55C18.9966 27.5502 19.7292 27.348 20.37 26.965" stroke="white" stroke-miterlimit="10"/>
<path fill-rule="evenodd" clip-rule="evenodd" d="M28.1086 22.6094C28.1462 22.8684 28.1462 23.1316 28.1086 23.3906L28.8183 23.9412C28.9078 24.0057 28.9696 24.1016 28.9914 24.2098C29.0132 24.318 28.9933 24.4305 28.9358 24.5247L28.3201 25.5411C28.2625 25.6307 28.1764 25.6981 28.0756 25.7323C27.9749 25.7665 27.8655 25.7654 27.7655 25.7294L27.1404 25.4894C27.0711 25.4633 26.9967 25.454 26.9232 25.4622C26.8497 25.4704 26.7792 25.4958 26.7174 25.5364C26.6266 25.5953 26.5324 25.6487 26.4354 25.6964C26.3678 25.7279 26.3087 25.7751 26.2629 25.834C26.2172 25.8929 26.186 25.9619 26.1722 26.0352L26.1064 26.6188C26.0854 26.7275 26.0267 26.8254 25.9407 26.8951C25.8548 26.9648 25.747 27.0019 25.6363 26.9999H24.3861C24.2755 27.0019 24.1677 26.9648 24.0818 26.8951C23.9958 26.8254 23.9371 26.7275 23.9161 26.6188L23.8268 26.0164C23.8132 25.9418 23.7816 25.8715 23.735 25.8117C23.6883 25.7519 23.6279 25.7043 23.5589 25.6729C23.4649 25.6258 23.3709 25.5741 23.2816 25.5176C23.2189 25.4772 23.1478 25.4515 23.0737 25.4425C22.9996 25.4336 22.9245 25.4415 22.8539 25.4658L22.2335 25.7058C22.1328 25.7431 22.0224 25.7448 21.9207 25.7105C21.8189 25.6763 21.732 25.6082 21.6742 25.5176L21.0585 24.5011C21.0035 24.4051 20.9865 24.2918 21.0109 24.1837C21.0352 24.0757 21.0992 23.9807 21.1901 23.9176L21.8763 23.3906C21.8387 23.1316 21.8387 22.8684 21.8763 22.6094L21.176 22.0871C21.0911 22.018 21.033 21.9215 21.0115 21.8141C20.9901 21.7068 21.0067 21.5953 21.0585 21.4989L21.6695 20.4824C21.7273 20.3918 21.8142 20.3237 21.916 20.2895C22.0177 20.2552 22.1281 20.2569 22.2288 20.2942L22.8539 20.5342C22.9225 20.5594 22.996 20.5683 23.0686 20.5601C23.1412 20.552 23.211 20.527 23.2722 20.4871L23.5589 20.3271C23.6265 20.2956 23.6856 20.2484 23.7314 20.1895C23.7771 20.1306 23.8082 20.0616 23.8221 19.9883L23.9114 19.3812C23.9324 19.2725 23.9911 19.1746 24.0771 19.1049C24.163 19.0352 24.2708 18.9981 24.3814 19.0001H25.6128C25.7235 18.9981 25.8313 19.0352 25.9172 19.1049C26.0032 19.1746 26.0619 19.2725 26.0829 19.3812L26.1722 19.9883C26.186 20.0616 26.2172 20.1306 26.2629 20.1895C26.3087 20.2484 26.3678 20.2956 26.4354 20.3271C26.5324 20.3748 26.6266 20.4282 26.7174 20.4871C26.7792 20.5277 26.8497 20.5531 26.9232 20.5613C26.9967 20.5695 27.0711 20.5602 27.1404 20.5342L27.7655 20.2942C27.8655 20.2581 27.9749 20.257 28.0756 20.2912C28.1764 20.3254 28.2625 20.3928 28.3201 20.4824L28.9264 21.4989C28.9842 21.5937 29.0042 21.707 28.9824 21.816C28.9607 21.925 28.8987 22.0217 28.8089 22.0871L28.1086 22.6094ZM26.5965 23.088C26.5965 23.9164 25.9249 24.588 25.0965 24.588C24.2681 24.588 23.5965 23.9164 23.5965 23.088C23.5965 22.2595 24.2681 21.588 25.0965 21.588C25.9249 21.588 26.5965 22.2595 26.5965 23.088Z" fill="white"/>
<path d="M28.1086 23.3906L27.6138 23.3187L27.5719 23.6071L27.8021 23.7856L28.1086 23.3906ZM28.1086 22.6094L27.8096 22.2086L27.571 22.3866L27.6138 22.6813L28.1086 22.6094ZM28.8183 23.9412L28.5118 24.3362L28.5188 24.3416L28.5259 24.3468L28.8183 23.9412ZM28.9914 24.2098L28.5012 24.3085V24.3085L28.9914 24.2098ZM28.9358 24.5247L28.5091 24.264L28.5081 24.2656L28.9358 24.5247ZM28.3201 25.5411L28.7409 25.8114L28.7477 25.8002L28.3201 25.5411ZM28.0756 25.7323L27.9149 25.2588L27.9149 25.2588L28.0756 25.7323ZM27.7655 25.7294L27.5862 26.1962L27.5959 26.1997L27.7655 25.7294ZM27.1404 25.4894L27.3196 25.0226L27.3163 25.0213L27.1404 25.4894ZM26.7174 25.5364L26.9894 25.9559L26.9918 25.9544L26.7174 25.5364ZM26.4354 25.6964L26.6468 26.1496L26.6559 26.1452L26.4354 25.6964ZM26.1722 26.0352L25.6809 25.9422L25.6774 25.9606L25.6753 25.9792L26.1722 26.0352ZM26.1064 26.6188L26.5973 26.7136L26.601 26.6943L26.6032 26.6748L26.1064 26.6188ZM25.6363 26.9999L25.6455 26.4999H25.6363V26.9999ZM24.3861 26.9999V26.4998L24.377 26.5L24.3861 26.9999ZM24.0818 26.8951L23.7668 27.2834H23.7668L24.0818 26.8951ZM23.9161 26.6188L23.4215 26.6921L23.4231 26.7029L23.4252 26.7136L23.9161 26.6188ZM23.8268 26.0164L24.3214 25.9431L24.3202 25.9347L24.3186 25.9263L23.8268 26.0164ZM23.735 25.8117L24.1293 25.5042L24.1293 25.5042L23.735 25.8117ZM23.5589 25.6729L23.3351 26.12L23.3434 26.1242L23.3519 26.128L23.5589 25.6729ZM23.2816 25.5176L23.0107 25.9379L23.0144 25.9402L23.2816 25.5176ZM23.0737 25.4425L23.0136 25.9389L23.0136 25.9389L23.0737 25.4425ZM22.8539 25.4658L22.6911 24.9931L22.6822 24.9961L22.6735 24.9995L22.8539 25.4658ZM22.2335 25.7058L22.4072 26.1747L22.4139 26.1722L22.2335 25.7058ZM21.9207 25.7105L22.0802 25.2367H22.0802L21.9207 25.7105ZM21.6742 25.5176L21.2464 25.7767L21.2526 25.7863L21.6742 25.5176ZM21.0585 24.5011L20.6245 24.7496L20.6308 24.7602L21.0585 24.5011ZM21.0109 24.1837L20.5231 24.0737L21.0109 24.1837ZM21.1901 23.9176L21.4752 24.3284L21.4851 24.3215L21.4947 24.3142L21.1901 23.9176ZM21.8763 23.3906L22.1809 23.7871L22.4132 23.6087L22.3711 23.3187L21.8763 23.3906ZM21.8763 22.6094L22.3711 22.6813L22.4139 22.3866L22.1753 22.2086L21.8763 22.6094ZM21.176 22.0871L20.8605 22.4749L20.8686 22.4816L20.8771 22.4879L21.176 22.0871ZM21.0115 21.8141L21.5018 21.7162V21.7162L21.0115 21.8141ZM21.0585 21.4989L20.63 21.2413L20.6238 21.2516L20.6181 21.2621L21.0585 21.4989ZM21.6695 20.4824L21.2477 20.2136L21.241 20.2248L21.6695 20.4824ZM21.916 20.2895L22.0755 20.7633L22.0755 20.7633L21.916 20.2895ZM22.2288 20.2942L22.408 19.8274L22.4025 19.8253L22.2288 20.2942ZM22.8539 20.5342L22.6747 21.001L22.6812 21.0034L22.8539 20.5342ZM23.0686 20.5601L23.0127 20.0633L23.0127 20.0633L23.0686 20.5601ZM23.2722 20.4871L23.0286 20.0505L23.0138 20.0587L22.9996 20.068L23.2722 20.4871ZM23.5589 20.3271L23.3475 19.874L23.3311 19.8817L23.3153 19.8905L23.5589 20.3271ZM23.7314 20.1895L24.1262 20.4962L24.1262 20.4962L23.7314 20.1895ZM23.8221 19.9883L24.3134 20.0814L24.3153 20.0713L24.3168 20.0611L23.8221 19.9883ZM23.9114 19.3812L23.4205 19.2864L23.4184 19.2974L23.4168 19.3085L23.9114 19.3812ZM24.0771 19.1049L24.392 19.4933L24.392 19.4933L24.0771 19.1049ZM24.3814 19.0001L24.3723 19.5001H24.3814V19.0001ZM25.6128 19.0001V19.5002L25.622 19.5L25.6128 19.0001ZM26.0829 19.3812L26.5775 19.3085L26.5759 19.2974L26.5738 19.2864L26.0829 19.3812ZM26.1722 19.9883L25.6775 20.0611L25.679 20.0713L25.6809 20.0814L26.1722 19.9883ZM26.2629 20.1895L26.6578 19.8828V19.8828L26.2629 20.1895ZM26.4354 20.3271L26.6559 19.8783L26.6468 19.874L26.4354 20.3271ZM26.7174 20.4871L26.9918 20.0692L26.9894 20.0676L26.7174 20.4871ZM26.9232 20.5613L26.868 21.0583H26.868L26.9232 20.5613ZM27.1404 20.5342L27.3163 21.0022L27.3196 21.0009L27.1404 20.5342ZM27.7655 20.2942L27.5958 19.8237L27.5863 19.8274L27.7655 20.2942ZM28.0756 20.2912L27.9149 20.7647L27.9149 20.7647L28.0756 20.2912ZM28.3201 20.4824L28.7495 20.2263L28.7453 20.2192L28.7408 20.2122L28.3201 20.4824ZM28.9264 21.4989L28.497 21.755L28.4994 21.759L28.9264 21.4989ZM28.9824 21.816L28.4921 21.718L28.4921 21.718L28.9824 21.816ZM28.8089 22.0871L28.5147 21.6827L28.5099 21.6863L28.8089 22.0871ZM28.6034 23.4624C28.6479 23.1558 28.6479 22.8442 28.6034 22.5376L27.6138 22.6813C27.6444 22.8926 27.6444 23.1074 27.6138 23.3187L28.6034 23.4624ZM29.1248 23.5461L28.4151 22.9955L27.8021 23.7856L28.5118 24.3362L29.1248 23.5461ZM29.4815 24.1111C29.4349 23.8794 29.3025 23.6738 29.1106 23.5355L28.5259 24.3468C28.513 24.3375 28.5043 24.3238 28.5012 24.3085L29.4815 24.1111ZM29.3625 24.7853C29.4857 24.5836 29.5282 24.3428 29.4815 24.1111L28.5012 24.3085C28.4981 24.2933 28.5009 24.2774 28.5091 24.264L29.3625 24.7853ZM28.7477 25.8002L29.3634 24.7837L28.5081 24.2656L27.8924 25.2821L28.7477 25.8002ZM28.2363 26.2058C28.4443 26.1352 28.6221 25.9961 28.7408 25.8113L27.8994 25.2709C27.9029 25.2654 27.9084 25.261 27.9149 25.2588L28.2363 26.2058ZM27.5959 26.1997C27.8025 26.2742 28.0283 26.2764 28.2363 26.2058L27.9149 25.2588C27.9215 25.2566 27.9286 25.2567 27.9351 25.259L27.5959 26.1997ZM26.9612 25.9561L27.5863 26.1961L27.9447 25.2626L27.3196 25.0226L26.9612 25.9561ZM26.9785 25.9591C26.9737 25.9597 26.9689 25.9591 26.9644 25.9574L27.3163 25.0213C27.1734 24.9676 27.0197 24.9484 26.868 24.9653L26.9785 25.9591ZM26.9918 25.9544C26.9879 25.957 26.9833 25.9586 26.9785 25.9591L26.868 24.9653C26.7162 24.9822 26.5705 25.0347 26.4429 25.1185L26.9918 25.9544ZM26.6559 26.1452C26.7707 26.0887 26.8821 26.0255 26.9894 25.9559L26.4453 25.1169C26.3711 25.165 26.2942 25.2087 26.2148 25.2477L26.6559 26.1452ZM26.6578 26.1408C26.6549 26.1445 26.6512 26.1475 26.6468 26.1495L26.2239 25.2433C26.0844 25.3084 25.9625 25.4058 25.8681 25.5273L26.6578 26.1408ZM26.6634 26.1283C26.6626 26.1328 26.6606 26.1371 26.6578 26.1408L25.8681 25.5273C25.7737 25.6488 25.7095 25.791 25.6809 25.9422L26.6634 26.1283ZM26.6032 26.6748L26.669 26.0913L25.6753 25.9792L25.6095 26.5627L26.6032 26.6748ZM26.2557 27.2834C26.4331 27.1396 26.554 26.9377 26.5973 26.7136L25.6154 26.5239C25.6167 26.5173 25.6203 26.5112 25.6258 26.5067L26.2557 27.2834ZM25.6272 27.4998C25.8557 27.504 26.0782 27.4273 26.2557 27.2834L25.6258 26.5067C25.6313 26.5023 25.6382 26.4999 25.6455 26.5L25.6272 27.4998ZM24.3861 27.4999H25.6363V26.4999H24.3861V27.4999ZM23.7668 27.2834C23.9442 27.4273 24.1668 27.504 24.3952 27.4998L24.377 26.5C24.3843 26.4999 24.3912 26.5023 24.3967 26.5067L23.7668 27.2834ZM23.4252 26.7136C23.4685 26.9377 23.5894 27.1396 23.7668 27.2834L24.3967 26.5067C24.4022 26.5112 24.4058 26.5173 24.4071 26.5239L23.4252 26.7136ZM23.3322 26.0897L23.4215 26.6921L24.4107 26.5454L24.3214 25.9431L23.3322 26.0897ZM23.3407 26.1192C23.3378 26.1155 23.3359 26.1111 23.335 26.1065L24.3186 25.9263C24.2904 25.7724 24.2255 25.6276 24.1293 25.5042L23.3407 26.1192ZM23.3519 26.128C23.3475 26.126 23.3436 26.123 23.3407 26.1192L24.1293 25.5042C24.033 25.3809 23.9084 25.2825 23.7659 25.2178L23.3519 26.128ZM23.0144 25.9402C23.1206 26.0073 23.2296 26.0672 23.3351 26.12L23.7828 25.2258C23.7003 25.1845 23.6213 25.1408 23.5489 25.095L23.0144 25.9402ZM23.0136 25.9389C23.0126 25.9388 23.0116 25.9384 23.0107 25.9379L23.5525 25.0973C23.4262 25.0159 23.283 24.9642 23.1338 24.9461L23.0136 25.9389ZM23.0168 25.9386C23.0158 25.9389 23.0147 25.939 23.0136 25.9389L23.1338 24.9461C22.9846 24.9281 22.8332 24.9441 22.6911 24.9931L23.0168 25.9386ZM22.4139 26.1722L23.0343 25.9322L22.6735 24.9995L22.0531 25.2395L22.4139 26.1722ZM21.7612 26.1844C21.9713 26.2551 22.1993 26.2517 22.4072 26.1747L22.0598 25.237C22.0664 25.2345 22.0736 25.2344 22.0802 25.2367L21.7612 26.1844ZM21.2526 25.7863C21.3716 25.9732 21.5511 26.1137 21.7612 26.1844L22.0802 25.2367C22.0868 25.2389 22.0923 25.2432 22.0959 25.2489L21.2526 25.7863ZM20.6308 24.7602L21.2466 25.7766L22.1019 25.2585L21.4862 24.2421L20.6308 24.7602ZM20.5231 24.0737C20.4712 24.3037 20.5074 24.5449 20.6246 24.7496L21.4924 24.2527C21.4996 24.2652 21.5017 24.2798 21.4986 24.2937L20.5231 24.0737ZM20.905 23.5069C20.7112 23.6414 20.575 23.8437 20.5231 24.0737L21.4986 24.2937C21.4955 24.3077 21.4872 24.3201 21.4752 24.3284L20.905 23.5069ZM21.5717 22.994L20.8855 23.5211L21.4947 24.3142L22.1809 23.7871L21.5717 22.994ZM21.3815 22.5376C21.337 22.8442 21.337 23.1558 21.3815 23.4624L22.3711 23.3187C22.3404 23.1074 22.3404 22.8926 22.3711 22.6813L21.3815 22.5376ZM20.8771 22.4879L21.5774 23.0102L22.1753 22.2086L21.4749 21.6863L20.8771 22.4879ZM20.5212 21.9121C20.5654 22.1334 20.6853 22.3325 20.8605 22.4749L21.4915 21.6992C21.4969 21.7036 21.5005 21.7096 21.5018 21.7162L20.5212 21.9121ZM20.6181 21.2621C20.5112 21.4609 20.477 21.6908 20.5212 21.9121L21.5018 21.7162C21.5031 21.7228 21.5021 21.7296 21.4989 21.7356L20.6181 21.2621ZM21.241 20.2248L20.63 21.2413L21.487 21.7565L22.098 20.74L21.241 20.2248ZM21.7565 19.8156C21.5464 19.8863 21.3669 20.0268 21.2478 20.2137L22.0912 20.7511C22.0876 20.7568 22.0821 20.7611 22.0755 20.7633L21.7565 19.8156ZM22.4025 19.8253C22.1946 19.7483 21.9666 19.7449 21.7565 19.8156L22.0755 20.7633C22.0689 20.7656 22.0617 20.7655 22.0551 20.763L22.4025 19.8253ZM23.0331 20.0674L22.408 19.8274L22.0496 20.761L22.6747 21.0009L23.0331 20.0674ZM23.0127 20.0633C23.0175 20.0627 23.0222 20.0633 23.0267 20.065L22.6812 21.0034C22.8228 21.0555 22.9746 21.0739 23.1245 21.057L23.0127 20.0633ZM22.9996 20.068C23.0035 20.0654 23.008 20.0638 23.0127 20.0633L23.1245 21.057C23.2745 21.0401 23.4184 20.9885 23.5449 20.9062L22.9996 20.068ZM23.3153 19.8905L23.0286 20.0505L23.5159 20.9237L23.8026 20.7637L23.3153 19.8905ZM23.3365 19.8828C23.3394 19.8791 23.3431 19.8761 23.3475 19.874L23.7704 20.7802C23.9099 20.7151 24.0318 20.6178 24.1262 20.4962L23.3365 19.8828ZM23.3309 19.8952C23.3317 19.8907 23.3336 19.8865 23.3365 19.8828L24.1262 20.4962C24.2206 20.3747 24.2848 20.2325 24.3134 20.0814L23.3309 19.8952ZM23.4168 19.3085L23.3275 19.9155L24.3168 20.0611L24.4061 19.454L23.4168 19.3085ZM23.7621 18.7166C23.5847 18.8604 23.4638 19.0623 23.4205 19.2864L24.4024 19.4761C24.4011 19.4827 24.3975 19.4888 24.392 19.4933L23.7621 18.7166ZM24.3905 18.5002C24.1621 18.496 23.9395 18.5727 23.7621 18.7166L24.392 19.4933C24.3865 19.4977 24.3796 19.5001 24.3723 19.5L24.3905 18.5002ZM25.6128 18.5001H24.3814V19.5001H25.6128V18.5001ZM26.2322 18.7166C26.0547 18.5727 25.8322 18.496 25.6037 18.5002L25.622 19.5C25.6147 19.5001 25.6078 19.4977 25.6023 19.4933L26.2322 18.7166ZM26.5738 19.2864C26.5305 19.0623 26.4096 18.8604 26.2322 18.7166L25.6023 19.4933C25.5968 19.4888 25.5932 19.4827 25.5919 19.4761L26.5738 19.2864ZM26.6668 19.9155L26.5775 19.3085L25.5882 19.454L25.6775 20.0611L26.6668 19.9155ZM26.6578 19.8828C26.6606 19.8865 26.6626 19.8907 26.6634 19.8952L25.6809 20.0814C25.7095 20.2325 25.7737 20.3747 25.8681 20.4962L26.6578 19.8828ZM26.6468 19.874C26.6512 19.8761 26.6549 19.8791 26.6578 19.8828L25.8681 20.4962C25.9625 20.6177 26.0844 20.7151 26.2239 20.7802L26.6468 19.874ZM26.9894 20.0676C26.8821 19.998 26.7707 19.9348 26.6559 19.8784L26.2148 20.7759C26.2942 20.8148 26.3711 20.8585 26.4453 20.9066L26.9894 20.0676ZM26.9785 20.0644C26.9833 20.0649 26.9879 20.0666 26.9918 20.0692L26.4429 20.905C26.5705 20.9889 26.7162 21.0414 26.868 21.0583L26.9785 20.0644ZM26.9644 20.0661C26.9689 20.0645 26.9737 20.0639 26.9785 20.0644L26.868 21.0583C27.0198 21.0751 27.1734 21.0559 27.3163 21.0022L26.9644 20.0661ZM27.5863 19.8274L26.9612 20.0674L27.3196 21.0009L27.9447 20.761L27.5863 19.8274ZM28.2363 19.8178C28.0283 19.7472 27.8025 19.7493 27.5959 19.8238L27.9351 20.7645C27.9286 20.7669 27.9215 20.7669 27.9149 20.7647L28.2363 19.8178ZM28.7408 20.2122C28.6221 20.0275 28.4443 19.8884 28.2363 19.8178L27.9149 20.7647C27.9084 20.7625 27.9029 20.7582 27.8994 20.7526L28.7408 20.2122ZM29.3558 21.2427L28.7495 20.2263L27.8907 20.7385L28.497 21.755L29.3558 21.2427ZM29.4727 21.9139C29.5191 21.6819 29.4765 21.4408 29.3534 21.2387L28.4994 21.759C28.4919 21.7467 28.4893 21.732 28.4921 21.718L29.4727 21.9139ZM29.103 22.4914C29.2945 22.3522 29.4264 22.1459 29.4727 21.9139L28.4921 21.718C28.4949 21.704 28.5029 21.6913 28.5148 21.6827L29.103 22.4914ZM28.4075 23.0102L29.1078 22.4879L28.5099 21.6863L27.8096 22.2086L28.4075 23.0102ZM25.0965 25.088C26.2011 25.088 27.0965 24.1925 27.0965 23.088H26.0965C26.0965 23.6402 25.6488 24.088 25.0965 24.088V25.088ZM23.0965 23.088C23.0965 24.1925 23.9919 25.088 25.0965 25.088V24.088C24.5442 24.088 24.0965 23.6402 24.0965 23.088H23.0965ZM25.0965 21.088C23.9919 21.088 23.0965 21.9834 23.0965 23.088H24.0965C24.0965 22.5357 24.5442 22.088 25.0965 22.088V21.088ZM27.0965 23.088C27.0965 21.9834 26.2011 21.088 25.0965 21.088V22.088C25.6488 22.088 26.0965 22.5357 26.0965 23.088H27.0965Z" fill="white"/>
</svg>
