<svg xmlns="http://www.w3.org/2000/svg" width="40" height="40" viewBox="0 0 40 40" fill="none">
<circle cx="20" cy="20" r="20" fill="#9333EA"/>
<path d="M24.4073 22.9453C24.4073 22.2681 24.9365 22.0988 25.2117 22.0988C25.6557 22.0988 25.9949 22.478 25.9949 22.9453V26.6138C25.9949 28.8713 24.3364 30 22.2906 30C20.2447 30 19.5409 29.4356 17.9533 26.6138L17.1219 25.1436C16.8383 24.6537 17.0653 24.0182 17.5882 23.8376C17.7591 23.778 17.9431 23.776 18.1152 23.8317C18.2873 23.8874 18.4392 23.9983 18.5502 24.1491L19.6446 25.5036M19.6446 25.485V20.6991M24.4073 23.7919V21.8166C24.4073 21.5921 24.3237 21.3767 24.1748 21.218C24.026 21.0592 23.8241 20.97 23.6135 20.97C23.403 20.97 23.2011 21.0592 23.0523 21.218C22.9034 21.3767 22.8198 21.5921 22.8198 21.8166V23.7919V21.2522C22.8198 21.0277 22.7361 20.8124 22.5873 20.6536C22.4384 20.4948 22.2365 20.4056 22.026 20.4056C21.8154 20.4056 21.6135 20.4948 21.4647 20.6536C21.3158 20.8124 21.2322 21.0277 21.2322 21.2522V23.7919V18.9947C21.2322 18.7702 21.1486 18.5549 20.9997 18.3961C20.8508 18.2373 20.6489 18.1481 20.4384 18.1481C20.2279 18.1481 20.026 18.2373 19.8771 18.3961C19.7282 18.5549 19.6446 18.7702 19.6446 18.9947V23.7919" stroke="white" stroke-width="0.75" stroke-linecap="round" stroke-linejoin="round"/>
<path d="M23.0142 18.4146C24.4918 16.8062 24.3401 14.34 22.6754 12.9064C21.0107 11.4728 18.4633 11.6145 16.9858 13.223C15.5082 14.8315 15.6599 17.2976 17.3246 18.7313C17.4783 18.8636 17.6394 18.9825 17.8066 19.0881" stroke="white" stroke-width="0.75" stroke-linecap="round" stroke-linejoin="round"/>
<path d="M21.7344 17.4535C22.665 16.5282 22.643 15.0462 21.6852 14.1434C20.7273 13.2406 19.1964 13.2588 18.2657 14.1841C17.335 15.1095 17.357 16.5915 18.3149 17.4943" stroke="white" stroke-width="0.75" stroke-linecap="round" stroke-linejoin="round"/>
</svg>