<svg width="40" height="40" viewBox="0 0 40 40" fill="none" xmlns="http://www.w3.org/2000/svg">
<circle cx="20" cy="20" r="20" fill="#3783FF"/>
<path d="M15.0847 15.9909C14.1808 15.6485 11.8983 15.0323 10 15.3062V25.2342C11.8079 25.1201 16.3051 25.7135 19.8305 29M19.8305 29C21.2994 27.7447 25.3898 25.2342 30 25.2342V15.3062C28.7571 14.9639 25.8644 14.6215 24.2373 15.9909M19.8305 29V24.2072" stroke="white" stroke-linecap="round"/>
<path d="M18.5661 19.7993H21.4034" stroke="white" stroke-width="0.75" stroke-linecap="round"/>
<path d="M19.1966 21H20.7729" stroke="white" stroke-width="0.75" stroke-linecap="round"/>
<mask id="path-5-inside-1_1_50" fill="white">
<path fill-rule="evenodd" clip-rule="evenodd" d="M17 14.0881C17 13.2691 17.3161 12.4836 17.8787 11.9045C18.4413 11.3254 19.2044 11 20 11C20.7956 11 21.5587 11.3254 22.1213 11.9045C22.6839 12.4836 23 13.2691 23 14.0881C23.0003 14.5854 22.8835 15.0752 22.6595 15.5158C22.4356 15.9564 22.1113 16.3345 21.7143 16.6178L21.482 17.7498C21.4512 17.9585 21.3489 18.1489 21.1934 18.2865C21.038 18.4241 20.8397 18.4997 20.6347 18.4998H19.3653C19.1603 18.4997 18.962 18.4241 18.8066 18.2865C18.6511 18.1489 18.5488 17.9585 18.518 17.7498L18.2857 16.6226C17.8886 16.3384 17.5642 15.9593 17.3404 15.518C17.1165 15.0766 16.9997 14.586 17 14.0881ZM18.575 14.4374C18.575 14.1299 18.6666 13.6624 18.9285 13.2835C19.1768 12.9244 19.5888 12.625 20.3 12.625C20.5071 12.625 20.675 12.4571 20.675 12.25C20.675 12.0429 20.5071 11.875 20.3 11.875C19.3313 11.875 18.6933 12.3048 18.3116 12.8571C17.9435 13.3896 17.825 14.0159 17.825 14.4374C17.825 14.6445 17.9929 14.8124 18.2 14.8124C18.4071 14.8124 18.575 14.6445 18.575 14.4374Z"/>
</mask>
<path fill-rule="evenodd" clip-rule="evenodd" d="M17 14.0881C17 13.2691 17.3161 12.4836 17.8787 11.9045C18.4413 11.3254 19.2044 11 20 11C20.7956 11 21.5587 11.3254 22.1213 11.9045C22.6839 12.4836 23 13.2691 23 14.0881C23.0003 14.5854 22.8835 15.0752 22.6595 15.5158C22.4356 15.9564 22.1113 16.3345 21.7143 16.6178L21.482 17.7498C21.4512 17.9585 21.3489 18.1489 21.1934 18.2865C21.038 18.4241 20.8397 18.4997 20.6347 18.4998H19.3653C19.1603 18.4997 18.962 18.4241 18.8066 18.2865C18.6511 18.1489 18.5488 17.9585 18.518 17.7498L18.2857 16.6226C17.8886 16.3384 17.5642 15.9593 17.3404 15.518C17.1165 15.0766 16.9997 14.586 17 14.0881ZM18.575 14.4374C18.575 14.1299 18.6666 13.6624 18.9285 13.2835C19.1768 12.9244 19.5888 12.625 20.3 12.625C20.5071 12.625 20.675 12.4571 20.675 12.25C20.675 12.0429 20.5071 11.875 20.3 11.875C19.3313 11.875 18.6933 12.3048 18.3116 12.8571C17.9435 13.3896 17.825 14.0159 17.825 14.4374C17.825 14.6445 17.9929 14.8124 18.2 14.8124C18.4071 14.8124 18.575 14.6445 18.575 14.4374Z" fill="white"/>
<path d="M17.8787 11.9045L18.2952 12.3091L18.2952 12.3091L17.8787 11.9045ZM17 14.0881L17.5806 14.0885V14.0881H17ZM22.1213 11.9045L21.7048 12.3091L21.7048 12.3091L22.1213 11.9045ZM23 14.0881L22.4194 14.0881L22.4194 14.0885L23 14.0881ZM21.7143 16.6178L21.377 16.1451C21.2577 16.2303 21.175 16.3574 21.1455 16.5011L21.7143 16.6178ZM21.482 17.7498L20.9132 17.6331C20.911 17.6437 20.9091 17.6544 20.9076 17.6651L21.482 17.7498ZM21.1934 18.2865L21.5783 18.7212L21.5783 18.7212L21.1934 18.2865ZM20.6347 18.4998L20.6347 19.0804L20.6348 19.0804L20.6347 18.4998ZM19.3653 18.4998L19.3652 19.0804H19.3653V18.4998ZM18.8066 18.2865L18.4217 18.7212L18.4217 18.7212L18.8066 18.2865ZM18.518 17.7498L19.0924 17.6651C19.0908 17.6542 19.0889 17.6434 19.0867 17.6326L18.518 17.7498ZM18.2857 16.6226L18.8544 16.5054C18.8249 16.3623 18.7425 16.2356 18.6237 16.1505L18.2857 16.6226ZM18.9285 13.2835L19.4062 13.6137L19.4062 13.6137L18.9285 13.2835ZM18.3116 12.8571L18.7892 13.1872L18.7892 13.1872L18.3116 12.8571ZM17.4622 11.4999C16.7926 12.1891 16.4194 13.1205 16.4194 14.0881H17.5806C17.5806 13.4178 17.8395 12.7781 18.2952 12.3091L17.4622 11.4999ZM20 10.4194C19.0448 10.4194 18.1323 10.8101 17.4622 11.4999L18.2952 12.3091C18.7503 11.8406 19.3639 11.5806 20 11.5806V10.4194ZM22.5378 11.4999C21.8677 10.8101 20.9552 10.4194 20 10.4194V11.5806C20.6361 11.5806 21.2497 11.8406 21.7048 12.3091L22.5378 11.4999ZM23.5806 14.0881C23.5806 13.1205 23.2074 12.1891 22.5378 11.4999L21.7048 12.3091C22.1605 12.7781 22.4194 13.4178 22.4194 14.0881H23.5806ZM23.1772 15.7789C23.4428 15.2562 23.581 14.676 23.5806 14.0878L22.4194 14.0885C22.4196 14.4947 22.3241 14.8943 22.1419 15.2527L23.1772 15.7789ZM22.0516 17.0904C22.5257 16.7521 22.9115 16.3017 23.1772 15.7789L22.1419 15.2527C21.9598 15.6111 21.6968 15.9169 21.377 16.1451L22.0516 17.0904ZM22.0508 17.8665L22.2831 16.7345L21.1455 16.5011L20.9132 17.6331L22.0508 17.8665ZM21.5783 18.7212C21.838 18.4914 22.0061 18.1762 22.0564 17.8345L20.9076 17.6651C20.8964 17.7407 20.8597 17.8064 20.8086 17.8517L21.5783 18.7212ZM20.6348 19.0804C20.9836 19.0804 21.3181 18.9515 21.5783 18.7212L20.8086 17.8517C20.7578 17.8966 20.6959 17.9191 20.6346 17.9191L20.6348 19.0804ZM19.3653 19.0804H20.6347V17.9191H19.3653V19.0804ZM18.4217 18.7212C18.6819 18.9515 19.0164 19.0804 19.3652 19.0804L19.3654 17.9191C19.3041 17.9191 19.2422 17.8966 19.1914 17.8517L18.4217 18.7212ZM17.9436 17.8345C17.9939 18.1762 18.162 18.4914 18.4217 18.7212L19.1914 17.8517C19.1403 17.8064 19.1036 17.7407 19.0924 17.6651L17.9436 17.8345ZM17.717 16.7398L17.9493 17.867L19.0867 17.6326L18.8544 16.5054L17.717 16.7398ZM16.8225 15.7807C17.0881 16.3041 17.4737 16.7554 17.9477 17.0948L18.6237 16.1505C18.3036 15.9213 18.0404 15.6146 17.8582 15.2553L16.8225 15.7807ZM16.4194 14.0878C16.419 14.6765 16.557 15.2573 16.8225 15.7807L17.8582 15.2553C17.6759 14.896 17.5804 14.4956 17.5806 14.0885L16.4194 14.0878ZM18.4509 12.9534C18.1068 13.4511 17.9944 14.0414 17.9944 14.4374H19.1557C19.1557 14.2183 19.2263 13.8738 19.4062 13.6137L18.4509 12.9534ZM20.3 12.0444C19.3896 12.0444 18.8026 12.4445 18.4509 12.9534L19.4062 13.6137C19.5509 13.4042 19.7881 13.2056 20.3 13.2056V12.0444ZM20.0944 12.25C20.0944 12.1364 20.1865 12.0444 20.3 12.0444V13.2056C20.8278 13.2056 21.2557 12.7778 21.2557 12.25H20.0944ZM20.3 12.4556C20.1865 12.4556 20.0944 12.3636 20.0944 12.25H21.2557C21.2557 11.7222 20.8278 11.2944 20.3 11.2944V12.4556ZM18.7892 13.1872C19.0677 12.7844 19.5308 12.4556 20.3 12.4556V11.2944C19.1317 11.2944 18.319 11.8252 17.8339 12.5269L18.7892 13.1872ZM18.4057 14.4374C18.4057 14.104 18.5034 13.6008 18.7892 13.1872L17.8339 12.5269C17.3836 13.1784 17.2444 13.9277 17.2444 14.4374H18.4057ZM18.2 14.2318C18.3136 14.2318 18.4057 14.3239 18.4057 14.4374H17.2444C17.2444 14.9652 17.6723 15.3931 18.2 15.3931V14.2318ZM17.9944 14.4374C17.9944 14.3239 18.0865 14.2318 18.2 14.2318V15.3931C18.7278 15.3931 19.1557 14.9652 19.1557 14.4374H17.9944Z" fill="white" mask="url(#path-5-inside-1_1_50)"/>
</svg>
