<svg width="40" height="40" viewBox="0 0 40 40" fill="none" xmlns="http://www.w3.org/2000/svg">
<circle cx="20" cy="20" r="20" fill="#EA580C"/>
<g clip-path="url(#clip0_4_131)">
<path d="M21.337 29.0002H11.8893C11.545 29.0002 11.2147 28.8824 10.9712 28.6727C10.7277 28.463 10.591 28.1787 10.591 27.8822V12.1182C10.591 11.8217 10.7277 11.5373 10.9712 11.3276C11.2147 11.118 11.545 11.0002 11.8893 11.0002H27.2926C27.6369 11.0002 27.9672 11.118 28.2107 11.3276C28.4542 11.5373 28.591 11.8217 28.591 12.1182V20.5002" stroke="white" stroke-linecap="round" stroke-linejoin="round"/>
<path d="M17 21.5457V22.4547C17 22.5753 17.0575 22.6909 17.1598 22.7762C17.2621 22.8614 17.4008 22.9093 17.5455 22.9093H21.9091C22.0538 22.9093 22.1925 22.8614 22.2948 22.7762C22.3971 22.6909 22.4546 22.5753 22.4546 22.4547V21.5457" stroke="white" stroke-width="0.75" stroke-linecap="round" stroke-linejoin="round"/>
<path d="M19.7273 19.7272V16.9999" stroke="white" stroke-width="0.75" stroke-linecap="round" stroke-linejoin="round"/>
<path d="M21.193 19.4406C21.3637 19.4406 21.462 19.6347 21.3608 19.7723L19.9247 21.7262C19.8415 21.8395 19.6723 21.8395 19.589 21.7262L18.1529 19.7723C18.0518 19.6347 18.15 19.4406 18.3208 19.4406H21.193Z" fill="white"/>
<path fill-rule="evenodd" clip-rule="evenodd" d="M23.2509 24.305C23.351 24.1112 23.4785 23.9329 23.6296 23.7755L23.4155 23.0583C23.3861 22.9712 23.3907 22.8762 23.4284 22.7923C23.4661 22.7083 23.5341 22.6417 23.6187 22.6058L24.5288 22.2154C24.6113 22.1825 24.7024 22.1786 24.7872 22.2043C24.8721 22.23 24.9457 22.2837 24.996 22.3566L25.3034 22.8224C25.3377 22.8736 25.3836 22.9159 25.4374 22.946C25.4911 22.9761 25.5513 22.9931 25.6129 22.9955C25.7029 22.9996 25.7927 23.0091 25.8816 23.0238C25.9427 23.0352 26.0056 23.0319 26.0652 23.0141C26.1248 22.9964 26.1793 22.9647 26.2243 22.9218L26.5517 22.5582C26.6187 22.4946 26.7059 22.4567 26.798 22.4511C26.89 22.4456 26.9811 22.4727 27.0551 22.5277L27.9025 23.1338C27.9784 23.186 28.0335 23.2634 28.058 23.3524C28.0824 23.4413 28.0748 23.5361 28.0363 23.62L27.8048 24.0715C27.7779 24.1288 27.7652 24.1916 27.7678 24.2548C27.7704 24.318 27.7883 24.3795 27.8198 24.4343C27.8607 24.5117 27.8993 24.5924 27.9325 24.6739C27.9554 24.7318 27.9912 24.7836 28.037 24.8256C28.0829 24.8676 28.1377 24.8987 28.1973 24.9164L28.7342 25.0545C28.8205 25.078 28.8961 25.1304 28.9485 25.203C29.0008 25.2755 29.0268 25.3638 29.022 25.4532L28.9466 26.4407C28.9373 26.5325 28.8939 26.6175 28.825 26.6789C28.7561 26.7403 28.6667 26.7737 28.5745 26.7724L27.8538 26.7969C27.7538 26.9907 27.6262 27.1691 27.4751 27.3264L27.6966 28.02C27.7206 28.1079 27.7133 28.2015 27.6757 28.2847C27.6382 28.3679 27.5729 28.4354 27.491 28.4756L26.5841 28.8684C26.5011 28.9018 26.4091 28.9058 26.3235 28.8796C26.238 28.8535 26.1639 28.7989 26.1138 28.7248L25.8064 28.2591C25.7722 28.2087 25.7267 28.167 25.6735 28.1374C25.6203 28.1077 25.5609 28.0909 25.5001 28.0882L25.2282 28.0576C25.1671 28.0462 25.1042 28.0496 25.0446 28.0673C24.985 28.085 24.9305 28.1167 24.8855 28.1597L24.5307 28.5278C24.4637 28.5914 24.3765 28.6293 24.2845 28.6348C24.1924 28.6404 24.1013 28.6133 24.0273 28.5583L23.1927 27.9613C23.1167 27.9091 23.0617 27.8317 23.0372 27.7427C23.0127 27.6538 23.0204 27.559 23.0589 27.4751L23.2927 27.0204C23.3188 26.9639 23.3312 26.9021 23.3287 26.84C23.3262 26.7779 23.3091 26.7173 23.2785 26.6631C23.2359 26.5837 23.1979 26.5019 23.165 26.418C23.1427 26.3605 23.1073 26.309 23.0614 26.2679C23.0156 26.2267 22.9606 26.1969 22.9011 26.181L22.361 26.0406C22.2757 26.0166 22.2011 25.9642 22.1494 25.8922C22.0977 25.8202 22.0719 25.7328 22.0764 25.6442L22.1582 24.6613C22.165 24.5689 22.2063 24.4825 22.2739 24.4192C22.3415 24.3558 22.4305 24.3203 22.523 24.3195L23.2509 24.305ZM24.5874 24.861C24.9654 24.3325 25.6997 24.2101 26.2275 24.5877C26.7553 24.9652 26.8768 25.6997 26.4988 26.2281C26.1208 26.7566 25.3865 26.8789 24.8587 26.5014C24.3308 26.1239 24.2094 25.3894 24.5874 24.861Z" fill="white"/>
<path d="M23.6296 23.7755L23.8964 24.0317L24.0456 23.8762L23.984 23.6697L23.6296 23.7755ZM23.2509 24.305L23.2583 24.6748L23.4785 24.6704L23.5795 24.4747L23.2509 24.305ZM23.4155 23.0583L23.7701 22.9524L23.7659 22.9401L23.4155 23.0583ZM23.6187 22.6058L23.7633 22.9462L23.7646 22.9457L23.6187 22.6058ZM24.5288 22.2154L24.392 21.8717L24.383 21.8755L24.5288 22.2154ZM24.7872 22.2043L24.6801 22.5583L24.6801 22.5583L24.7872 22.2043ZM24.996 22.3566L25.3048 22.1529L25.3005 22.1467L24.996 22.3566ZM25.3034 22.8224L24.9947 23.0261L24.9961 23.0282L25.3034 22.8224ZM25.4374 22.946L25.2568 23.2688L25.2568 23.2688L25.4374 22.946ZM25.6129 22.9955L25.6297 22.6261L25.6276 22.626L25.6129 22.9955ZM25.8816 23.0238L25.9494 22.6602L25.942 22.659L25.8816 23.0238ZM26.0652 23.0141L26.1707 23.3686L26.1707 23.3686L26.0652 23.0141ZM26.2243 22.9218L26.4797 23.1892L26.4898 23.1796L26.4991 23.1693L26.2243 22.9218ZM26.5517 22.5582L26.2972 22.2899L26.2867 22.2999L26.2769 22.3106L26.5517 22.5582ZM26.798 22.4511L26.8203 22.8203L26.8203 22.8203L26.798 22.4511ZM27.0551 22.5277L26.8345 22.8245L26.8399 22.8285L27.0551 22.5277ZM27.9025 23.1338L27.6873 23.4346L27.6929 23.4384L27.9025 23.1338ZM28.0363 23.62L28.3654 23.7887L28.3691 23.7815L28.3724 23.7742L28.0363 23.62ZM27.8048 24.0715L27.4755 23.9027L27.4701 23.9141L27.8048 24.0715ZM27.7678 24.2548L28.1373 24.2395L28.1373 24.2395L27.7678 24.2548ZM27.8198 24.4343L28.1471 24.2615L28.1402 24.2495L27.8198 24.4343ZM27.9325 24.6739L28.2763 24.5377L28.2751 24.5347L27.9325 24.6739ZM28.1973 24.9164L28.0918 25.2711L28.1052 25.2746L28.1973 24.9164ZM28.7342 25.0545L28.8314 24.6976L28.8263 24.6963L28.7342 25.0545ZM28.9485 25.203L29.2483 24.9865L29.2483 24.9865L28.9485 25.203ZM29.022 25.4532L29.3909 25.4814L29.3913 25.473L29.022 25.4532ZM28.9466 26.4407L29.3146 26.4779L29.3153 26.4688L28.9466 26.4407ZM28.825 26.6789L29.0711 26.955L29.0711 26.955L28.825 26.6789ZM28.5745 26.7724L28.5797 26.4026L28.5708 26.4025L28.5619 26.4028L28.5745 26.7724ZM27.8538 26.7969L27.8412 26.4273L27.6247 26.4347L27.5252 26.6272L27.8538 26.7969ZM27.4751 27.3264L27.2084 27.0703L27.0558 27.2291L27.1228 27.4389L27.4751 27.3264ZM27.6966 28.02L28.0533 27.9224L28.0512 27.9149L28.0489 27.9075L27.6966 28.02ZM27.6757 28.2847L27.3386 28.1326L27.3386 28.1326L27.6757 28.2847ZM27.491 28.4756L27.638 28.815L27.6462 28.8115L27.6541 28.8075L27.491 28.4756ZM26.5841 28.8684L26.7222 29.2116L26.7311 29.2077L26.5841 28.8684ZM26.3235 28.8796L26.4315 28.5259L26.4315 28.5259L26.3235 28.8796ZM26.1138 28.7248L25.8051 28.9285L25.8075 28.9321L26.1138 28.7248ZM25.8064 28.2591L26.1151 28.0553L26.1123 28.0511L25.8064 28.2591ZM25.6735 28.1374L25.8537 27.8144L25.8537 27.8144L25.6735 28.1374ZM25.5001 28.0882L25.4588 28.4557L25.4712 28.4571L25.4838 28.4576L25.5001 28.0882ZM25.2282 28.0576L25.1604 28.4212L25.1736 28.4236L25.1869 28.4251L25.2282 28.0576ZM25.0446 28.0673L25.1502 28.4217L25.1502 28.4217L25.0446 28.0673ZM24.8855 28.1597L24.63 27.8923L24.6245 27.8975L24.6192 27.903L24.8855 28.1597ZM24.5307 28.5278L24.7853 28.7961L24.7913 28.7904L24.797 28.7845L24.5307 28.5278ZM24.2845 28.6348L24.3068 29.004L24.3068 29.004L24.2845 28.6348ZM24.0273 28.5583L24.248 28.2614L24.2425 28.2575L24.0273 28.5583ZM23.1927 27.9613L23.4079 27.6605L23.4023 27.6567L23.1927 27.9613ZM23.0372 27.7427L23.3938 27.6446L23.3938 27.6446L23.0372 27.7427ZM23.0589 27.4751L22.73 27.306L22.7262 27.3134L22.7228 27.3209L23.0589 27.4751ZM23.2927 27.0204L23.6216 27.1895L23.6251 27.1827L23.6283 27.1758L23.2927 27.0204ZM23.2785 26.6631L22.9527 26.8382L22.9564 26.8447L23.2785 26.6631ZM23.165 26.418L22.82 26.5513L22.8208 26.5533L23.165 26.418ZM22.9011 26.181L22.9966 25.8237L22.9941 25.8231L22.9011 26.181ZM22.361 26.0406L22.2607 26.3966L22.268 26.3985L22.361 26.0406ZM22.1494 25.8922L21.849 26.1079L21.849 26.1079L22.1494 25.8922ZM22.0764 25.6442L21.7076 25.6135L21.707 25.6257L22.0764 25.6442ZM22.1582 24.6613L22.5268 24.6919L22.527 24.6885L22.1582 24.6613ZM22.2739 24.4192L22.5268 24.6891L22.5268 24.6891L22.2739 24.4192ZM22.523 24.3195L22.526 24.6894L22.5304 24.6893L22.523 24.3195ZM23.3628 23.5194C23.1871 23.7024 23.0387 23.9099 22.9223 24.1353L23.5795 24.4747C23.6633 24.3125 23.77 24.1633 23.8964 24.0317L23.3628 23.5194ZM23.0611 23.1641L23.2752 23.8813L23.984 23.6697L23.7699 22.9525L23.0611 23.1641ZM23.0911 22.6407C23.0152 22.8096 23.0059 23.001 23.0651 23.1765L23.7659 22.9401C23.7664 22.9414 23.7663 22.9427 23.7658 22.9438L23.0911 22.6407ZM23.4742 22.2654C23.3038 22.3378 23.1669 22.4718 23.0911 22.6407L23.7658 22.9438C23.7653 22.9449 23.7644 22.9457 23.7633 22.9462L23.4742 22.2654ZM24.383 21.8755L23.4729 22.2659L23.7646 22.9457L24.6747 22.5552L24.383 21.8755ZM24.8943 21.8503C24.7292 21.8004 24.5521 21.808 24.392 21.8718L24.6657 22.5589C24.6704 22.5571 24.6755 22.5569 24.6801 22.5583L24.8943 21.8503ZM25.3005 22.1467C25.2025 22.0047 25.0593 21.9002 24.8943 21.8503L24.6801 22.5583C24.6848 22.5597 24.6888 22.5626 24.6916 22.5666L25.3005 22.1467ZM25.612 22.6187L25.3047 22.1529L24.6873 22.5603L24.9947 23.0261L25.612 22.6187ZM25.6179 22.6233C25.615 22.6216 25.6125 22.6193 25.6106 22.6165L24.9961 23.0282C25.0628 23.1278 25.1522 23.2102 25.2568 23.2688L25.6179 22.6233ZM25.6276 22.626C25.6242 22.6259 25.6209 22.6249 25.6179 22.6233L25.2568 23.2688C25.3614 23.3273 25.4784 23.3603 25.5982 23.3651L25.6276 22.626ZM25.942 22.659C25.8387 22.6418 25.7344 22.6309 25.6297 22.6261L25.5961 23.365C25.6715 23.3684 25.7467 23.3763 25.8212 23.3887L25.942 22.659ZM25.9596 22.6597C25.9562 22.6607 25.9527 22.6609 25.9493 22.6602L25.8138 23.3874C25.9326 23.4095 26.055 23.4031 26.1707 23.3686L25.9596 22.6597ZM25.9688 22.6544C25.9661 22.6569 25.963 22.6587 25.9596 22.6597L26.1707 23.3686C26.2865 23.3341 26.3924 23.2726 26.4797 23.1892L25.9688 22.6544ZM26.2769 22.3106L25.9494 22.6743L26.4991 23.1693L26.8265 22.8057L26.2769 22.3106ZM26.7756 22.082C26.5966 22.0928 26.4272 22.1665 26.2972 22.2899L26.8063 22.8264C26.8102 22.8227 26.8152 22.8206 26.8203 22.8203L26.7756 22.082ZM27.2757 22.2308C27.1317 22.1238 26.9546 22.0711 26.7756 22.082L26.8203 22.8203C26.8255 22.82 26.8305 22.8215 26.8345 22.8245L27.2757 22.2308ZM28.1176 22.833L27.2703 22.2269L26.8399 22.8285L27.6873 23.4346L28.1176 22.833ZM28.4146 23.2543C28.367 23.0814 28.2599 22.9308 28.1121 22.8291L27.6929 23.4384C27.697 23.4413 27.7 23.4455 27.7014 23.4505L28.4146 23.2543ZM28.3724 23.7742C28.4472 23.6113 28.4621 23.4272 28.4146 23.2543L27.7014 23.4505C27.7028 23.4555 27.7024 23.4609 27.7001 23.4658L28.3724 23.7742ZM28.1339 24.2402L28.3654 23.7887L27.7072 23.4513L27.4757 23.9028L28.1339 24.2402ZM28.1373 24.2395C28.1372 24.2359 28.1379 24.2323 28.1394 24.2289L27.4701 23.9141C27.4179 24.0253 27.3932 24.1474 27.3983 24.2701L28.1373 24.2395ZM28.1402 24.2495C28.1385 24.2465 28.1375 24.2431 28.1373 24.2395L27.3983 24.2701C27.4034 24.3929 27.4381 24.5126 27.4994 24.619L28.1402 24.2495ZM28.2751 24.5347C28.2364 24.4394 28.1922 24.3475 28.1469 24.2616L27.4928 24.6069C27.5292 24.676 27.5623 24.7453 27.5899 24.8132L28.2751 24.5347ZM28.2868 24.5529C28.2822 24.5487 28.2786 24.5435 28.2763 24.5377L27.5887 24.8102C27.6322 24.9201 27.7001 25.0186 27.7873 25.0984L28.2868 24.5529ZM28.3027 24.5619C28.2968 24.5601 28.2913 24.557 28.2868 24.5529L27.7873 25.0984C27.8745 25.1782 27.9786 25.2372 28.0919 25.2709L28.3027 24.5619ZM28.8263 24.6963L28.2894 24.5582L28.1052 25.2746L28.642 25.4127L28.8263 24.6963ZM29.2483 24.9865C29.1465 24.8454 28.9993 24.7435 28.8314 24.6977L28.6369 25.4113C28.6416 25.4126 28.6458 25.4155 28.6486 25.4194L29.2483 24.9865ZM29.3913 25.473C29.4006 25.2993 29.3502 25.1276 29.2483 24.9865L28.6486 25.4194C28.6515 25.4234 28.653 25.4283 28.6527 25.4334L29.3913 25.473ZM29.3153 26.4688L29.3908 25.4814L28.6532 25.425L28.5778 26.4125L29.3153 26.4688ZM29.0711 26.955C29.209 26.832 29.2959 26.6618 29.3145 26.4779L28.5786 26.4034L28.5789 26.4029L29.0711 26.955ZM28.5692 27.1422C28.7541 27.1448 28.9331 27.0779 29.0711 26.955L28.5789 26.4029L28.5797 26.4026L28.5692 27.1422ZM27.8664 27.1666L28.5871 27.142L28.5619 26.4028L27.8412 26.4273L27.8664 27.1666ZM27.7419 27.5825C27.9176 27.3995 28.066 27.1921 28.1824 26.9666L27.5252 26.6272C27.4415 26.7894 27.3348 26.9386 27.2084 27.0703L27.7419 27.5825ZM28.0489 27.9075L27.8274 27.2139L27.1228 27.4389L27.3443 28.1324L28.0489 27.9075ZM28.0129 28.4368C28.0857 28.2753 28.1001 28.0934 28.0533 27.9224L27.3398 28.1175C27.3412 28.1225 27.3408 28.1278 27.3386 28.1326L28.0129 28.4368ZM27.6541 28.8075C27.8132 28.7294 27.94 28.5983 28.0129 28.4368L27.3386 28.1326C27.3364 28.1375 27.3326 28.1414 27.3279 28.1437L27.6541 28.8075ZM26.7311 29.2077L27.638 28.815L27.3441 28.1362L26.4372 28.529L26.7311 29.2077ZM26.2156 29.2334C26.382 29.2842 26.5608 29.2764 26.7222 29.2115L26.4461 28.5253C26.4413 28.5272 26.4362 28.5274 26.4315 28.5259L26.2156 29.2334ZM25.8075 28.9321C25.9051 29.0762 26.0491 29.1826 26.2156 29.2334L26.4315 28.5259C26.4268 28.5245 26.4228 28.5215 26.42 28.5174L25.8075 28.9321ZM25.4977 28.4628L25.8051 28.9285L26.4224 28.5211L26.1151 28.0554L25.4977 28.4628ZM25.4933 28.4603C25.4962 28.462 25.4987 28.4642 25.5006 28.467L26.1123 28.0511C26.0457 27.9532 25.9571 27.8721 25.8537 27.8144L25.4933 28.4603ZM25.4838 28.4576C25.4871 28.4578 25.4904 28.4587 25.4933 28.4603L25.8537 27.8144C25.7502 27.7567 25.6347 27.7239 25.5164 27.7187L25.4838 28.4576ZM25.1869 28.4251L25.4588 28.4557L25.5414 27.7207L25.2695 27.6901L25.1869 28.4251ZM25.1502 28.4217C25.1535 28.4207 25.1571 28.4206 25.1604 28.4212L25.2959 27.694C25.1772 27.6719 25.0548 27.6784 24.939 27.7129L25.1502 28.4217ZM25.141 28.4271C25.1436 28.4246 25.1468 28.4228 25.1502 28.4217L24.939 27.7129C24.8233 27.7473 24.7174 27.8088 24.63 27.8923L25.141 28.4271ZM24.797 28.7845L25.1518 28.4163L24.6192 27.903L24.2644 28.2712L24.797 28.7845ZM24.3068 29.004C24.4858 28.9931 24.6552 28.9195 24.7853 28.7961L24.2762 28.2595C24.2723 28.2632 24.2673 28.2654 24.2621 28.2657L24.3068 29.004ZM23.8068 28.8552C23.9507 28.9622 24.1278 29.0148 24.3068 29.004L24.2621 28.2657C24.257 28.266 24.252 28.2645 24.2479 28.2615L23.8068 28.8552ZM22.9775 28.2621L23.8122 28.8591L24.2425 28.2575L23.4078 27.6605L22.9775 28.2621ZM22.6806 27.8408C22.7282 28.0137 22.8353 28.1643 22.9831 28.266L23.4023 27.6567C23.3982 27.6538 23.3952 27.6496 23.3938 27.6446L22.6806 27.8408ZM22.7228 27.3209C22.648 27.4838 22.6331 27.6679 22.6806 27.8408L23.3938 27.6446C23.3924 27.6396 23.3928 27.6342 23.3951 27.6293L22.7228 27.3209ZM22.9638 26.8513L22.73 27.306L23.3878 27.6442L23.6216 27.1895L22.9638 26.8513ZM22.9592 26.8546C22.9593 26.8582 22.9586 26.8617 22.9571 26.865L23.6283 27.1758C23.679 27.0662 23.703 26.9461 23.6982 26.8254L22.9592 26.8546ZM22.9564 26.8447C22.9581 26.8477 22.959 26.8511 22.9592 26.8546L23.6982 26.8254C23.6935 26.7047 23.6601 26.5868 23.6007 26.4815L22.9564 26.8447ZM22.8208 26.5533C22.8591 26.6508 22.9032 26.7459 22.9528 26.8382L23.6043 26.488C23.5686 26.4215 23.5368 26.353 23.5092 26.2827L22.8208 26.5533ZM22.8143 26.543C22.8168 26.5453 22.8188 26.5481 22.82 26.5513L23.5099 26.2846C23.4667 26.1728 23.3977 26.0728 23.3085 25.9927L22.8143 26.543ZM22.8055 26.5383C22.8088 26.5392 22.8118 26.5408 22.8143 26.543L23.3085 25.9927C23.2193 25.9126 23.1124 25.8547 22.9966 25.8237L22.8055 26.5383ZM22.268 26.3985L22.808 26.5389L22.9941 25.8231L22.4541 25.6827L22.268 26.3985ZM21.849 26.1079C21.9495 26.248 22.0947 26.3498 22.2607 26.3966L22.4614 25.6847C22.4567 25.6833 22.4526 25.6805 22.4498 25.6765L21.849 26.1079ZM21.707 25.6257C21.6984 25.7978 21.7484 25.9679 21.849 26.1079L22.4498 25.6765C22.447 25.6726 22.4455 25.6677 22.4457 25.6626L21.707 25.6257ZM21.7896 24.6306L21.7078 25.6135L22.4449 25.6748L22.5267 24.6919L21.7896 24.6306ZM22.0211 24.1493C21.8858 24.276 21.803 24.4491 21.7894 24.634L22.527 24.6885L22.5268 24.6891L22.0211 24.1493ZM22.5201 23.9497C22.3345 23.9512 22.1564 24.0225 22.0211 24.1493L22.5268 24.6891L22.526 24.6894L22.5201 23.9497ZM23.2435 23.9352L22.5156 23.9498L22.5304 24.6893L23.2583 24.6748L23.2435 23.9352ZM26.4426 24.2869C25.7483 23.7903 24.7831 23.9516 24.2866 24.6458L24.8882 25.0761C25.1476 24.7134 25.651 24.63 26.0123 24.8885L26.4426 24.2869ZM26.7996 26.4433C27.2962 25.749 27.1369 24.7835 26.4426 24.2869L26.0123 24.8885C26.3737 25.1469 26.4574 25.6503 26.198 26.013L26.7996 26.4433ZM24.6435 26.8022C25.3378 27.2988 26.303 27.1375 26.7996 26.4433L26.198 26.013C25.9386 26.3757 25.4352 26.4591 25.0738 26.2006L24.6435 26.8022ZM24.2866 24.6458C23.79 25.3401 23.9492 26.3056 24.6435 26.8022L25.0738 26.2006C24.7125 25.9422 24.6288 25.4388 24.8882 25.0761L24.2866 24.6458Z" fill="white"/>
<path d="M10.7188 14.7205L28.5 14.7205" stroke="white" stroke-linecap="round" stroke-linejoin="round"/>
<path d="M12.4883 13.4026C12.8722 13.4026 13.1834 13.0886 13.1834 12.7013C13.1834 12.314 12.8722 12 12.4883 12C12.1044 12 11.7932 12.314 11.7932 12.7013C11.7932 13.0886 12.1044 13.4026 12.4883 13.4026Z" fill="white"/>
<path d="M15.3088 13.4778C15.6927 13.4778 16.0039 13.1638 16.0039 12.7765C16.0039 12.3892 15.6927 12.0752 15.3088 12.0752C14.9249 12.0752 14.6137 12.3892 14.6137 12.7765C14.6137 13.1638 14.9249 13.4778 15.3088 13.4778Z" fill="white"/>
<path d="M17.9413 13.4778C18.3252 13.4778 18.6364 13.1638 18.6364 12.7765C18.6364 12.3892 18.3252 12.0752 17.9413 12.0752C17.5574 12.0752 17.2462 12.3892 17.2462 12.7765C17.2462 13.1638 17.5574 13.4778 17.9413 13.4778Z" fill="white"/>
</g>
<defs>
<clipPath id="clip0_4_131">
<rect width="20" height="20" fill="white" transform="translate(10 10)"/>
</clipPath>
</defs>
</svg>
