<svg width="40" height="40" viewBox="0 0 40 40" fill="none" xmlns="http://www.w3.org/2000/svg">
<circle cx="20" cy="20" r="20" fill="#C026D3"/>
<g clip-path="url(#clip0_1_31)">
<path d="M21 29H12.2984C11.954 29 11.6238 28.8822 11.3803 28.6725C11.1368 28.4629 11 28.1785 11 27.882V12.118C11 11.8215 11.1368 11.5371 11.3803 11.3275C11.6238 11.1178 11.954 11 12.2984 11H27.7016C28.046 11 28.3762 11.1178 28.6197 11.3275C28.8632 11.5371 29 11.8215 29 12.118V20.5" stroke="white" stroke-linecap="round" stroke-linejoin="round"/>
<path d="M11 15.5001L29 15.4999" stroke="white" stroke-linecap="round" stroke-linejoin="round"/>
<path d="M14 24H17.3333" stroke="white" stroke-linecap="round" stroke-linejoin="round"/>
<path d="M14 20H18.5" stroke="white" stroke-linecap="round" stroke-linejoin="round"/>
<path d="M13.4883 14.1819C13.8722 14.1819 14.1834 13.8679 14.1834 13.4806C14.1834 13.0933 13.8722 12.7793 13.4883 12.7793C13.1044 12.7793 12.7932 13.0933 12.7932 13.4806C12.7932 13.8679 13.1044 14.1819 13.4883 14.1819Z" fill="white"/>
<path d="M16.3088 14.2571C16.6927 14.2571 17.0039 13.9431 17.0039 13.5558C17.0039 13.1685 16.6927 12.8545 16.3088 12.8545C15.9249 12.8545 15.6137 13.1685 15.6137 13.5558C15.6137 13.9431 15.9249 14.2571 16.3088 14.2571Z" fill="white"/>
<path d="M18.9413 14.2571C19.3252 14.2571 19.6364 13.9431 19.6364 13.5558C19.6364 13.1685 19.3252 12.8545 18.9413 12.8545C18.5574 12.8545 18.2462 13.1685 18.2462 13.5558C18.2462 13.9431 18.5574 14.2571 18.9413 14.2571Z" fill="white"/>
<path fill-rule="evenodd" clip-rule="evenodd" d="M26.6324 28.3479L28.5405 26.52C28.6931 26.3738 28.749 26.1573 28.6798 25.9598C28.4875 25.4112 28.0668 24.2842 27.6191 23.5596C27.5997 23.5282 27.5805 23.4972 27.5616 23.4665C27.0266 22.5997 26.6887 22.0521 25.8477 21.4137C24.9145 20.7052 24.2219 20.5054 23.0739 20.2279C22.3207 20.0458 21.2516 20.009 20.6195 20.0049C20.322 20.0029 20.083 20.2319 20.08 20.5218C20.0736 21.1376 20.0932 22.1796 20.2674 22.9164C20.5329 24.0395 20.7262 24.7176 21.4375 25.6385C22.0785 26.4686 22.6347 26.807 23.5153 27.3428C23.5464 27.3618 23.5779 27.381 23.6099 27.4004C24.3459 27.8488 25.4953 28.2776 26.0551 28.4742C26.2566 28.5449 26.4798 28.4942 26.6324 28.3479ZM23.5432 23.3719C23.9485 22.9836 23.9539 22.3485 23.5552 21.9534C23.1564 21.5583 22.5046 21.5528 22.0992 21.9411C21.6939 22.3294 21.6885 22.9645 22.0873 23.3596C22.486 23.7547 23.1378 23.7602 23.5432 23.3719Z" fill="white"/>
<path d="M22.1751 28.006L22.2329 26.4134C22.6817 26.7663 23.7916 27.5615 24.6407 27.9194L24.3731 29.359L22.1751 28.006Z" fill="white"/>
<path d="M28.1891 22.2452L26.6948 22.2349C27.2475 22.8771 27.8822 24.0845 28.1304 24.6079L29.5503 24.4009L28.1891 22.2452Z" fill="white"/>
<path d="M29.7698 30.0173C29.1968 30.1138 27.4001 30.0493 27.2696 28.6601C27.2736 28.5674 27.2679 28.5437 27.3743 28.4278L28.461 27.4011C28.5104 27.3544 28.5538 27.3078 28.6546 27.3071C29.034 27.3045 30.2473 27.7266 29.8741 29.8142C29.8375 30.0186 29.8743 29.9997 29.7698 30.0173Z" fill="white"/>
</g>
<defs>
<clipPath id="clip0_1_31">
<rect width="20" height="20" fill="white" transform="translate(10 10)"/>
</clipPath>
</defs>
</svg>
