<svg width="40" height="40" viewBox="0 0 40 40" fill="none" xmlns="http://www.w3.org/2000/svg">
<circle cx="20" cy="20" r="20" fill="#059669"/>
<g clip-path="url(#clip0_1_17)">
<path d="M20 29H12.2984C11.954 29 11.6238 28.8822 11.3803 28.6725C11.1368 28.4629 11 28.1785 11 27.882V12.118C11 11.8215 11.1368 11.5371 11.3803 11.3275C11.6238 11.1178 11.954 11 12.2984 11H27.7016C28.046 11 28.3762 11.1178 28.6197 11.3275C28.8632 11.5371 29 11.8215 29 12.118V21" stroke="white" stroke-linecap="round" stroke-linejoin="round"/>
<path d="M11 15.5001L29 15.4999" stroke="white" stroke-linecap="round" stroke-linejoin="round"/>
<path d="M14 24H17.3333" stroke="white" stroke-linecap="round" stroke-linejoin="round"/>
<path d="M14 20H18.5" stroke="white" stroke-linecap="round" stroke-linejoin="round"/>
<path d="M13.4883 14.1819C13.8722 14.1819 14.1834 13.8679 14.1834 13.4806C14.1834 13.0933 13.8722 12.7793 13.4883 12.7793C13.1044 12.7793 12.7932 13.0933 12.7932 13.4806C12.7932 13.8679 13.1044 14.1819 13.4883 14.1819Z" fill="white"/>
<path d="M16.3088 14.2571C16.6927 14.2571 17.0039 13.9431 17.0039 13.5558C17.0039 13.1685 16.6927 12.8545 16.3088 12.8545C15.9249 12.8545 15.6137 13.1685 15.6137 13.5558C15.6137 13.9431 15.9249 14.2571 16.3088 14.2571Z" fill="white"/>
<path d="M18.9413 14.2571C19.3252 14.2571 19.6364 13.9431 19.6364 13.5558C19.6364 13.1685 19.3252 12.8545 18.9413 12.8545C18.5574 12.8545 18.2462 13.1685 18.2462 13.5558C18.2462 13.9431 18.5574 14.2571 18.9413 14.2571Z" fill="white"/>
<path d="M19.0471 24.7986C19.1591 24.6008 19.2804 24.4088 19.4108 24.223C19.715 23.7613 20.0593 23.3279 20.4395 22.9281C20.9506 22.3424 21.5749 21.8691 22.2738 21.5374C22.9727 21.2058 23.7314 21.0229 24.5028 21C25.2734 21.0237 26.0309 21.207 26.7288 21.5386C27.4267 21.8702 28.0501 22.3431 28.5605 22.9281C28.9424 23.3264 29.2868 23.7599 29.5892 24.223C29.7196 24.4088 29.8409 24.6008 29.9529 24.7986C29.9839 24.8611 30 24.9301 30 25C30 25.0699 29.9839 25.1389 29.9529 25.2014C29.8422 25.3999 29.7208 25.5921 29.5892 25.777C29.2868 26.2401 28.9424 26.6736 28.5605 27.0719C28.0509 27.658 27.4277 28.1316 26.7297 28.4633C26.0316 28.795 25.2736 28.9777 24.5028 29C23.7312 28.9781 22.9722 28.7957 22.2731 28.464C21.5741 28.1323 20.9499 27.6584 20.4395 27.0719C20.0593 26.6721 19.715 26.2387 19.4108 25.777C19.2792 25.5921 19.1578 25.3999 19.0471 25.2014C19.0161 25.1389 19 25.0699 19 25C19 24.9301 19.0161 24.8611 19.0471 24.7986Z" fill="white"/>
<path d="M24.6059 26.4967C25.466 26.4967 26.1633 25.8267 26.1633 25.0003C26.1633 24.1739 25.466 23.5039 24.6059 23.5039C23.7458 23.5039 23.0485 24.1739 23.0485 25.0003C23.0485 25.8267 23.7458 26.4967 24.6059 26.4967Z" fill="#059669"/>
</g>
<defs>
<clipPath id="clip0_1_17">
<rect width="20" height="20" fill="white" transform="translate(10 10)"/>
</clipPath>
</defs>
</svg>
