<svg width="16" height="16" viewBox="0 0 16 16" fill="none" xmlns="http://www.w3.org/2000/svg">
<path d="M13.9912 3.90047C14.5965 3.90084 15.0995 4.35806 15.0996 4.93758V11.0626C15.0996 11.6422 14.5966 12.0993 13.9912 12.0997H2.00879C1.40343 12.0993 0.900426 11.6422 0.900391 11.0626V4.93758C0.900526 4.35806 1.40347 3.90084 2.00879 3.90047H13.9912ZM2.00977 4.72469C1.87216 4.72478 1.77254 4.82716 1.77246 4.93758V11.0626C1.77248 11.173 1.87205 11.2754 2.00977 11.2755H13.9902C14.1279 11.2754 14.2275 11.173 14.2275 11.0626V4.93758C14.2275 4.82716 14.1278 4.72478 13.9902 4.72469H2.00977Z" fill="#667085" stroke="#424242" stroke-width="0.2"/>
<path d="M2.92871 10.2894V5.71032H4.27551L5.62231 7.39382L6.96911 5.71032H8.31592V10.2894H6.96911V7.66318L5.62231 9.34668L4.27551 7.66318V10.2894H2.92871ZM11.3462 10.2894L9.32602 8.06722H10.6728V5.71032H12.0196V8.06722H13.3664L11.3462 10.2894Z" fill="#667085"/>
</svg>
