<svg width="16" height="16" viewBox="0 0 16 16" fill="none" xmlns="http://www.w3.org/2000/svg">
<path d="M8.97481 3.28382C9.14124 3.28382 9.30774 3.34739 9.4349 3.47454C9.68856 3.72884 9.68856 4.13988 9.4349 4.39418L5.42052 8.40834C4.95612 8.87271 4.95612 9.62585 5.42052 10.0902C5.88491 10.5546 6.6381 10.5546 7.1025 10.0902L11.1169 6.07607C11.3705 5.82177 11.7823 5.82177 12.0366 6.07607C12.2902 6.33037 12.2902 6.74141 12.0366 6.99571L8.02219 11.0099C7.04981 11.9822 5.4732 11.9822 4.50082 11.0099C3.52845 10.0375 3.52845 8.46102 4.50082 7.4887L8.51521 3.47454C8.64204 3.34739 8.80838 3.28382 8.97481 3.28382ZM9.087 1.33331C9.72425 1.33331 10.3615 1.5764 10.8477 2.06259C11.3628 2.57775 11.6048 3.26262 11.5742 3.93709C12.2487 3.90653 12.9343 4.14912 13.4494 4.66424C14.4218 5.63661 14.4218 7.21322 13.4494 8.18559L8.91919 12.7157L9.76018 13.5567C10.0139 13.8104 10.0139 14.2228 9.76018 14.4764C9.50588 14.7301 9.09416 14.7301 8.84049 14.4764L7.99949 13.6354C7.49153 13.1274 7.49153 12.304 7.99949 11.7961L12.5297 7.2659C12.9941 6.80151 12.9941 6.04836 12.5297 5.58393C12.0653 5.11954 11.3121 5.11954 10.8477 5.58393L6.83328 9.59829C6.57897 9.85263 6.16726 9.85263 5.91358 9.59829C5.65927 9.34398 5.65927 8.93227 5.91358 8.6786L9.92799 4.66424C10.3924 4.19986 10.3924 3.4467 9.92799 2.98227C9.4636 2.51789 8.71041 2.51789 8.246 2.98227L2.93074 8.29746C2.67643 8.5518 2.26472 8.5518 2.01104 8.29746C1.75674 8.04315 1.75674 7.63144 2.01104 7.37777L7.3263 2.06259C7.8125 1.5764 8.44975 1.33331 9.087 1.33331Z" fill="#424242"/>
</svg>
