<svg width="9" height="9" viewBox="0 0 9 9" fill="none" xmlns="http://www.w3.org/2000/svg">
<path d="M2.46094 0L8.36719 0L8.46094 0.0117187L8.55469 0.0351562L8.63672 0.0820312L8.71875 0.140625L8.77734 0.222656L8.82422 0.304687L8.83594 0.351562L8.85938 0.445312L8.85938 6.39844L8.84766 6.49219L8.82422 6.58594L8.77734 6.66797L8.71875 6.75L8.63672 6.80859L8.55469 6.85547L8.46094 6.87891L8.36719 6.89062L8.27344 6.87891L8.17969 6.85547L8.09766 6.80859L8.01563 6.75L7.95703 6.66797L7.91016 6.58594L7.89844 6.53906L7.875 6.44531L7.875 1.67578L0.808594 8.75391L0.726563 8.80078L0.632813 8.83594L0.539063 8.85938H0.445313L0.351563 8.83594L0.257813 8.80078L0.175781 8.75391L0.105469 8.68359L0.0585938 8.60156L0.0234375 8.50781L0 8.41406L0 8.32031L0.0234375 8.22656L0.0585938 8.13281L0.105469 8.05078L7.18359 0.984375L2.46094 0.984375L2.36719 0.972656L2.27344 0.949219L2.19141 0.902344L2.10938 0.84375L2.05078 0.761719L2.00391 0.679687L1.98047 0.585937L1.96875 0.492187L1.98047 0.398437L2.00391 0.304687L2.05078 0.222656L2.10938 0.140625L2.19141 0.0820312L2.27344 0.0351562L2.36719 0.0117187L2.46094 0Z" fill="#6B7280"/>
</svg>
